<svg width="162" height="112" viewBox="0 0 162 112" fill="none" xmlns="http://www.w3.org/2000/svg">
    <g clip-path="url(#clip0_1_2096)">
    <path d="M156 0H6.0004C2.68671 0 0.000427246 2.68628 0.000427246 5.99997V41.9998C0.000427246 45.3135 2.68671 47.9998 6.0004 47.9998H156C159.313 47.9998 162 45.3135 162 41.9998V5.99997C162 2.68628 159.313 0 156 0Z" fill="black"/>
    <path d="M156 0.959938C157.336 0.961482 158.617 1.49301 159.562 2.43791C160.507 3.38281 161.038 4.66391 161.04 6.00015V42C161.038 43.3362 160.507 44.6173 159.562 45.5622C158.617 46.5071 157.336 47.0386 156 47.0402H6.0004C4.66414 47.0386 3.38307 46.5071 2.43821 45.5622C1.49336 44.6173 0.961899 43.3362 0.960422 42V6.00015C0.961877 4.66389 1.49333 3.38278 2.43819 2.43787C3.38305 1.49297 4.66414 0.961457 6.0004 0.959938H156ZM156 0.000183105H6.0004C4.41054 0.0048368 2.88712 0.638469 1.76292 1.76267C0.638713 2.88688 0.00508094 4.41029 0.000427246 6.00015L0.000427246 42C0.00508094 43.5898 0.638713 45.1132 1.76292 46.2375C2.88712 47.3617 4.41054 47.9953 6.0004 47.9999H156C157.59 47.9953 159.113 47.3617 160.237 46.2375C161.361 45.1132 161.995 43.5898 162 42V6.00015C161.995 4.41029 161.361 2.88688 160.237 1.76267C159.113 0.638469 157.59 0.0048368 156 0.000183105V0.000183105Z" fill="#A6A6A6"/>
    <path d="M56.9022 12.2919C56.924 12.7322 56.856 13.1724 56.7023 13.5856C56.5485 13.9988 56.3123 14.3764 56.008 14.6954C55.6669 15.0491 55.255 15.3268 54.7993 15.5104C54.3435 15.6939 53.8541 15.7792 53.3631 15.7606C52.8689 15.765 52.3789 15.6706 51.9218 15.483C51.4646 15.2953 51.0496 15.0181 50.7011 14.6678C50.3527 14.3174 50.0777 13.9009 49.8925 13.4428C49.7073 12.9847 49.6155 12.4942 49.6226 12.0001C49.6156 11.5059 49.7074 11.0154 49.8926 10.5573C50.0778 10.0991 50.3528 9.68263 50.7012 9.33224C51.0497 8.98185 51.4647 8.70464 51.9218 8.51688C52.3789 8.32913 52.8689 8.23462 53.3631 8.23891C53.8711 8.23737 54.3741 8.34009 54.8409 8.54071C55.2744 8.71644 55.6603 8.99208 55.9671 9.34518L55.3342 9.97854C55.093 9.69468 54.7899 9.47003 54.4481 9.32191C54.1063 9.17379 53.7351 9.10617 53.3631 9.12427C52.9886 9.12233 52.6175 9.19599 52.2722 9.34084C51.9268 9.4857 51.6143 9.69876 51.3532 9.96727C51.0922 10.2358 50.888 10.5542 50.7529 10.9035C50.6178 11.2528 50.5546 11.6258 50.5671 12.0001C50.5582 12.5607 50.7159 13.1113 51.0204 13.5822C51.3248 14.0531 51.7622 14.4229 52.2771 14.6448C52.792 14.8668 53.3612 14.9308 53.9126 14.8288C54.4639 14.7268 54.9726 14.4634 55.374 14.072C55.7435 13.6738 55.9577 13.1563 55.9775 12.6135H53.3631V11.7487H56.8518C56.8848 11.9279 56.9017 12.1097 56.9022 12.2919V12.2919Z" fill="white" stroke="white" stroke-width="0.2" stroke-miterlimit="10"/>
    <path d="M62.4334 9.28484H59.1545V11.5676H62.1112V12.4325H59.1545V14.7153H62.4334V15.6H58.2299V8.40009H62.4334V9.28484Z" fill="white" stroke="white" stroke-width="0.2" stroke-miterlimit="10"/>
    <path d="M66.3345 15.6H65.4087V9.28484H63.3978V8.40009H68.3455V9.28484H66.3345V15.6Z" fill="white" stroke="white" stroke-width="0.2" stroke-miterlimit="10"/>
    <path d="M71.9255 15.6V8.40009H72.8501V15.6H71.9255Z" fill="white" stroke="white" stroke-width="0.2" stroke-miterlimit="10"/>
    <path d="M76.954 15.6H76.0282V9.28484H74.0174V8.40009H78.965V9.28484H76.954V15.6Z" fill="white" stroke="white" stroke-width="0.2" stroke-miterlimit="10"/>
    <path d="M88.3312 14.6695C87.6304 15.3682 86.6811 15.7606 85.6915 15.7606C84.7019 15.7606 83.7527 15.3682 83.0519 14.6695C82.7052 14.3184 82.4327 13.9011 82.2505 13.4425C82.0683 12.9839 81.9802 12.4934 81.9914 12C81.9802 11.5067 82.0683 11.0161 82.2505 10.5576C82.4327 10.099 82.7052 9.68168 83.0519 9.33053C83.3983 8.98405 83.8096 8.70929 84.2623 8.52197C84.715 8.33465 85.2002 8.23846 85.6902 8.23889C86.1801 8.23933 86.6651 8.33638 87.1175 8.5245C87.5699 8.71262 87.9807 8.98811 88.3265 9.33521C88.6734 9.68543 88.9465 10.1018 89.1295 10.5595C89.3125 11.0173 89.4016 11.5072 89.3917 12C89.4026 12.4933 89.3144 12.9838 89.1322 13.4423C88.95 13.9009 88.6776 14.3182 88.3312 14.6695V14.6695ZM83.7351 14.0667C84.2541 14.5848 84.9575 14.8758 85.6909 14.8758C86.4243 14.8758 87.1278 14.5848 87.6468 14.0667C87.913 13.7942 88.1211 13.4705 88.2587 13.1153C88.3963 12.7601 88.4604 12.3807 88.4472 12C88.4604 11.6193 88.3963 11.2399 88.2587 10.8847C88.1211 10.5295 87.913 10.2059 87.6468 9.9334C87.1278 9.41525 86.4243 9.12423 85.6909 9.12423C84.9575 9.12423 84.2541 9.41525 83.7351 9.9334C83.4693 10.2061 83.2615 10.5298 83.1241 10.885C82.9868 11.2402 82.9227 11.6195 82.9359 12C82.9227 12.3806 82.9868 12.7599 83.1241 13.1151C83.2615 13.4703 83.4693 13.794 83.7351 14.0667V14.0667Z" fill="white" stroke="white" stroke-width="0.2" stroke-miterlimit="10"/>
    <path d="M90.6901 15.6V8.40009H91.8163L95.3155 14.0011H95.3553L95.3155 12.6135V8.40009H96.2413V15.6H95.2757L91.6147 9.72776H91.5749L91.6147 11.1153V15.6H90.6901Z" fill="white" stroke="white" stroke-width="0.2" stroke-miterlimit="10"/>
    <path d="M81.763 26.1019C80.7544 26.1058 79.7695 26.4083 78.9327 26.9715C78.096 27.5346 77.4448 28.333 77.0615 29.266C76.6781 30.1989 76.5798 31.2245 76.779 32.2133C76.9781 33.202 77.4657 34.1096 78.1802 34.8215C78.8948 35.5333 79.8042 36.0175 80.7937 36.2128C81.7833 36.4082 82.8085 36.306 83.7399 35.9191C84.6714 35.5322 85.4674 34.878 86.0273 34.0391C86.5873 33.2002 86.8861 32.2142 86.8861 31.2056C86.896 30.531 86.7701 29.8613 86.5159 29.2363C86.2617 28.6114 85.8844 28.0439 85.4064 27.5678C84.9284 27.0916 84.3596 26.7164 83.7336 26.4646C83.1077 26.2128 82.4375 26.0895 81.763 26.1019V26.1019ZM81.763 34.2989C81.1418 34.3431 80.5217 34.1994 79.9834 33.8863C79.4451 33.5733 79.0135 33.1054 78.7449 32.5436C78.4762 31.9818 78.3829 31.3522 78.4771 30.7366C78.5713 30.121 78.8486 29.5481 79.273 29.0924C79.6974 28.6367 80.2491 28.3193 80.8564 28.1815C81.4637 28.0438 82.0984 28.092 82.6779 28.32C83.2574 28.5481 83.7548 28.9453 84.1053 29.4599C84.4559 29.9746 84.6434 30.5829 84.6434 31.2056C84.6623 31.599 84.6022 31.9922 84.4668 32.3621C84.3314 32.7319 84.1234 33.071 83.855 33.3592C83.5866 33.6474 83.2632 33.879 82.9039 34.0404C82.5446 34.2018 82.1567 34.2897 81.763 34.2989V34.2989ZM70.5869 26.1019C69.5783 26.1057 68.5934 26.4083 67.7567 26.9714C66.9199 27.5345 66.2687 28.333 65.8854 29.2659C65.502 30.1988 65.4037 31.2244 65.6028 32.2132C65.8019 33.202 66.2895 34.1096 67.0041 34.8214C67.7186 35.5333 68.628 36.0175 69.6176 36.2128C70.6071 36.4082 71.6323 36.306 72.5638 35.9191C73.4952 35.5323 74.2912 34.8781 74.8512 34.0392C75.4111 33.2003 75.71 32.2142 75.7099 31.2056C75.7199 30.531 75.594 29.8613 75.3398 29.2364C75.0856 28.6114 74.7083 28.044 74.2303 27.5678C73.7524 27.0916 73.1835 26.7165 72.5576 26.4647C71.9317 26.2128 71.2615 26.0895 70.5869 26.1019V26.1019ZM70.5869 34.2989C69.9658 34.3431 69.3457 34.1994 68.8074 33.8863C68.2691 33.5733 67.8375 33.1054 67.5688 32.5436C67.3002 31.9818 67.2069 31.3522 67.3011 30.7366C67.3953 30.121 67.6726 29.5481 68.097 29.0924C68.5214 28.6367 69.0731 28.3193 69.6804 28.1815C70.2877 28.0438 70.9224 28.092 71.5019 28.32C72.0813 28.5481 72.5787 28.9453 72.9293 29.4599C73.2799 29.9746 73.4674 30.5829 73.4674 31.2056C73.4863 31.599 73.4262 31.9922 73.2908 32.3621C73.1554 32.7319 72.9474 33.071 72.679 33.3592C72.4106 33.6474 72.0872 33.8791 71.7279 34.0404C71.3686 34.2018 70.9807 34.2897 70.5869 34.2989ZM57.2924 27.6679V29.8331H62.4736C62.3989 30.8486 61.9833 31.8092 61.2943 32.559C60.7751 33.0882 60.1507 33.5027 59.4614 33.7758C58.7721 34.0488 58.0332 34.1743 57.2924 34.1442C55.778 34.1237 54.3326 33.5077 53.2689 32.4295C52.2052 31.3513 51.6089 29.8977 51.6089 28.3831C51.6089 26.8686 52.2052 25.4149 53.2689 24.3367C54.3326 23.2586 55.778 22.6426 57.2924 22.6221C58.7471 22.6031 60.1505 23.1588 61.1977 24.1686L62.7249 22.6414C62.0104 21.934 61.1618 21.3764 60.229 21.0013C59.2961 20.6261 58.2978 20.441 57.2924 20.4568C56.2418 20.4415 55.1987 20.6352 54.2236 21.0267C53.2485 21.4182 52.361 21.9996 51.6126 22.7371C50.8643 23.4747 50.27 24.3536 49.8644 25.3229C49.4588 26.2922 49.2499 27.3324 49.2499 28.3831C49.2499 29.4338 49.4588 30.4741 49.8644 31.4433C50.27 32.4126 50.8643 33.2916 51.6126 34.0291C52.361 34.7667 53.2485 35.3481 54.2236 35.7395C55.1987 36.131 56.2418 36.3247 57.2924 36.3094C58.319 36.352 59.3428 36.1758 60.2961 35.7925C61.2494 35.4092 62.1102 34.8276 62.8215 34.0862C64.0844 32.7077 64.7575 30.8897 64.6969 29.0212C64.7018 28.5674 64.6629 28.1142 64.5807 27.6679H57.2924ZM111.662 29.3497C111.355 28.4253 110.772 27.6177 109.99 27.0366C109.208 26.4556 108.267 26.1292 107.293 26.1019C106.637 26.106 105.989 26.243 105.388 26.5046C104.786 26.7663 104.244 27.1472 103.795 27.6242C103.345 28.1013 102.996 28.6646 102.77 29.2802C102.544 29.8957 102.445 30.5508 102.479 31.2056C102.465 31.8766 102.585 32.5437 102.834 33.1671C103.083 33.7905 103.455 34.3573 103.927 34.8337C104.4 35.3101 104.964 35.6863 105.586 35.9398C106.207 36.1934 106.873 36.3191 107.544 36.3094C108.385 36.3141 109.214 36.1099 109.956 35.7151C110.699 35.3203 111.331 34.7473 111.797 34.0476L110.057 32.8877C109.797 33.3205 109.428 33.6782 108.988 33.9256C108.547 34.173 108.05 34.3016 107.544 34.2989C107.024 34.3187 106.51 34.1819 106.069 33.9062C105.628 33.6304 105.28 33.2284 105.07 32.7523L111.894 29.9298L111.662 29.3497ZM104.703 31.0511C104.678 30.6796 104.729 30.3071 104.85 29.9553C104.972 29.6035 105.163 29.2795 105.411 29.0023C105.66 28.725 105.961 28.5001 106.297 28.3407C106.634 28.1813 106.998 28.0906 107.37 28.0739C107.757 28.0484 108.144 28.1375 108.481 28.33C108.817 28.5225 109.09 28.81 109.265 29.1565L104.703 31.0511ZM99.154 36.0001H101.397V20.9982H99.154V36.0001ZM95.4808 27.2425H95.4035C95.0626 26.8721 94.6465 26.5787 94.1831 26.382C93.7196 26.1853 93.2196 26.0898 92.7163 26.1019C91.4002 26.1579 90.1567 26.7201 89.2453 27.6711C88.3339 28.6222 87.8251 29.8885 87.8251 31.2057C87.8251 32.5229 88.3339 33.7892 89.2453 34.7402C90.1567 35.6912 91.4002 36.2534 92.7163 36.3094C93.2215 36.3229 93.7237 36.2261 94.1878 36.0258C94.6519 35.8255 95.0667 35.5264 95.4035 35.1495H95.4808V35.8842C95.4808 37.8368 94.4369 38.8807 92.7549 38.8807C92.1943 38.8672 91.6505 38.6873 91.1926 38.3636C90.7347 38.04 90.3835 37.5873 90.1838 37.0634L88.2312 37.8754C88.5992 38.7714 89.2263 39.5371 90.0323 40.0744C90.8382 40.6117 91.7863 40.8962 92.7549 40.8913C95.3842 40.8913 97.6074 39.3447 97.6074 35.5748V26.4112H95.4808V27.2425ZM92.9097 34.2989C92.1346 34.2331 91.4124 33.8788 90.8861 33.306C90.3598 32.7331 90.0677 31.9836 90.0677 31.2057C90.0677 30.4278 90.3598 29.6782 90.8861 29.1054C91.4124 28.5326 92.1346 28.1782 92.9097 28.1125C93.2953 28.1314 93.6732 28.2276 94.0208 28.3956C94.3685 28.5636 94.6787 28.7999 94.9331 29.0903C95.1874 29.3808 95.3807 29.7194 95.5014 30.0862C95.6221 30.4529 95.6677 30.8402 95.6355 31.2249C95.6656 31.6073 95.6184 31.9918 95.4965 32.3555C95.3746 32.7191 95.1806 33.0545 94.9262 33.3415C94.6717 33.6284 94.362 33.8611 94.0155 34.0256C93.669 34.1901 93.2929 34.2831 92.9097 34.2989V34.2989ZM122.167 20.9985H116.801V36.0001H119.04V30.3164H122.167C122.8 30.3512 123.434 30.2564 124.029 30.0379C124.625 29.8195 125.169 29.4819 125.63 29.0459C126.091 28.6099 126.457 28.0845 126.708 27.5019C126.959 26.9193 127.088 26.2917 127.088 25.6575C127.088 25.0232 126.959 24.3956 126.708 23.813C126.457 23.2304 126.091 22.7051 125.63 22.269C125.169 21.833 124.625 21.4954 124.029 21.277C123.434 21.0585 122.8 20.9638 122.167 20.9985V20.9985ZM122.225 28.2287H119.04V23.0863H122.225C122.567 23.0793 122.907 23.1405 123.225 23.2666C123.543 23.3926 123.833 23.5808 124.077 23.8203C124.322 24.0598 124.516 24.3456 124.649 24.6611C124.781 24.9765 124.85 25.3153 124.85 25.6575C124.85 25.9997 124.781 26.3385 124.649 26.654C124.516 26.9694 124.322 27.2553 124.077 27.4947C123.833 27.7342 123.543 27.9225 123.225 28.0485C122.907 28.1745 122.567 28.2358 122.225 28.2287V28.2287ZM136.063 26.0743C135.245 26.0266 134.432 26.2185 133.722 26.6265C133.013 27.0345 132.437 27.6408 132.067 28.371L134.055 29.2009C134.252 28.8385 134.551 28.5414 134.914 28.346C135.278 28.1506 135.69 28.0654 136.101 28.1008C136.669 28.0453 137.236 28.2173 137.677 28.5791C138.119 28.9409 138.399 29.4629 138.456 30.0307V30.1852C137.737 29.8032 136.935 29.6043 136.12 29.6062C133.978 29.6062 131.797 30.7835 131.797 32.9837C131.818 33.4473 131.932 33.9021 132.132 34.321C132.332 34.7399 132.614 35.1144 132.961 35.4222C133.309 35.73 133.714 35.9649 134.154 36.1129C134.594 36.2609 135.059 36.3191 135.522 36.2839C136.086 36.3171 136.648 36.1985 137.151 35.9405C137.653 35.6826 138.077 35.2946 138.379 34.8171H138.456V35.9751H140.617V30.2238C140.617 27.5604 138.629 26.0743 136.063 26.0743V26.0743ZM135.792 34.296C135.059 34.296 134.036 33.9294 134.036 33.0222C134.036 31.8643 135.31 31.4203 136.41 31.4203C137.125 31.4013 137.831 31.5746 138.456 31.9221C138.373 32.5728 138.058 33.1717 137.569 33.6081C137.079 34.0445 136.448 34.2888 135.792 34.296V34.296ZM148.492 26.4024L145.925 32.9064H145.847L143.184 26.4024H140.772L144.767 35.4926L142.489 40.5491H144.825L150.981 26.4024H148.492ZM128.323 36.0001H130.562V20.9985H128.323V36.0001Z" fill="white"/>
    <path d="M12.5227 9.04568C12.1292 9.51616 11.9305 10.1193 11.9674 10.7315V37.2707C11.9304 37.883 12.1291 38.4862 12.5227 38.9566L12.6115 39.0431L27.4783 24.1765V23.8258L12.6115 8.95856L12.5227 9.04568Z" fill="url(#paint0_linear_1_2096)"/>
    <path d="M32.4335 29.1342L27.4783 24.1765V23.8258L32.4347 18.8693L32.5464 18.933L38.4178 22.2691C40.0949 23.2219 40.0949 24.781 38.4178 25.7344L32.5464 29.0705L32.4335 29.1342Z" fill="url(#paint1_linear_1_2096)"/>
    <path d="M32.5464 29.0699L27.4782 24.0012L12.5227 38.9566C12.8644 39.258 13.3008 39.4304 13.7563 39.4438C14.2117 39.4573 14.6575 39.311 15.0164 39.0303L32.5464 29.0699Z" fill="url(#paint2_linear_1_2096)"/>
    <path d="M32.5464 18.9324L15.0164 8.97199C14.6575 8.6913 14.2117 8.54501 13.7563 8.55847C13.3008 8.57193 12.8644 8.74428 12.5227 9.04567L27.4782 24.0012L32.5464 18.9324Z" fill="url(#paint3_linear_1_2096)"/>
    <path opacity="0.2" d="M32.4347 28.9583L15.0164 38.855C14.6713 39.1177 14.2501 39.261 13.8164 39.2633C13.3827 39.2656 12.96 39.1268 12.6121 38.8678L12.5227 38.9572L12.6115 39.0437L12.6121 39.0431C12.9599 39.3023 13.3827 39.4412 13.8164 39.4389C14.2502 39.4366 14.6714 39.2931 15.0164 39.0303L32.5464 29.0699L32.4347 28.9583Z" fill="black"/>
    <path opacity="0.12" d="M12.5227 38.7819C12.1292 38.3114 11.9306 37.7082 11.9673 37.096V37.2713C11.9305 37.8836 12.1292 38.4867 12.5227 38.9572L12.6121 38.8678L12.5227 38.7819Z" fill="black"/>
    <path opacity="0.12" d="M38.4177 25.5585L32.4347 28.9583L32.5464 29.0699L38.4177 25.7338C38.7631 25.5839 39.062 25.3442 39.2832 25.0395C39.5045 24.7349 39.64 24.3765 39.6757 24.0017C39.6015 24.3411 39.4491 24.6586 39.2307 24.9288C39.0124 25.199 38.734 25.4146 38.4177 25.5585V25.5585Z" fill="black"/>
    <path opacity="0.25" d="M15.0164 9.14792L38.4177 22.4439C38.7341 22.5877 39.0126 22.8033 39.231 23.0737C39.4493 23.3441 39.6016 23.6617 39.6757 24.0012C39.6402 23.6263 39.5048 23.2677 39.2836 22.9629C39.0623 22.6582 38.7633 22.4184 38.4177 22.2685L15.0164 8.9726C13.3393 8.01969 11.9673 8.8112 11.9673 10.7322V10.9075C11.9673 8.98664 13.3393 8.19513 15.0164 9.14792Z" fill="white"/>
    </g>
    <g clip-path="url(#clip1_1_2096)">
    <path d="M149.099 64H12.908C12.4115 64 11.921 64 11.4259 64.0024C11.0115 64.0048 10.6003 64.0118 10.1819 64.0177C9.2728 64.0272 8.36589 64.098 7.46899 64.2297C6.57336 64.3643 5.70578 64.6179 4.8956 64.9821C4.08641 65.3494 3.34704 65.8266 2.70429 66.3965C2.05817 66.9648 1.51958 67.6217 1.10923 68.3418C0.697744 69.0606 0.412419 69.8308 0.263109 70.6258C0.112379 71.4199 0.0312704 72.2231 0.0205099 73.0282C0.00794675 73.3961 0.00662003 73.7653 0 74.1332V101.87C0.00662003 102.243 0.00794675 102.604 0.0205099 102.977C0.0312737 103.782 0.112383 104.585 0.263109 105.379C0.412007 106.174 0.697348 106.945 1.10923 107.664C1.51939 108.382 2.05806 109.036 2.70429 109.601C3.3446 110.174 4.08445 110.651 4.8956 111.016C5.70577 111.381 6.57326 111.636 7.46899 111.773C8.36604 111.903 9.27286 111.974 10.1819 111.985C10.6003 111.993 11.0115 111.998 11.4259 111.998C11.921 112 12.4115 112 12.908 112H149.099C149.586 112 150.08 112 150.567 111.998C150.979 111.998 151.402 111.993 151.815 111.985C152.722 111.975 153.627 111.904 154.522 111.773C155.421 111.635 156.292 111.38 157.106 111.016C157.916 110.651 158.655 110.173 159.295 109.601C159.94 109.034 160.48 108.38 160.895 107.664C161.304 106.945 161.586 106.174 161.733 105.379C161.884 104.585 161.968 103.782 161.984 102.977C161.989 102.604 161.989 102.243 161.989 101.87C162 101.434 162 101.001 162 100.558V75.4434C162 75.0039 162 74.568 161.989 74.1332C161.989 73.7653 161.989 73.3961 161.984 73.0282C161.968 72.2229 161.884 71.4199 161.733 70.6258C161.586 69.8312 161.303 69.061 160.895 68.3418C160.059 66.8983 158.734 65.7233 157.106 64.982C156.292 64.6187 155.421 64.3651 154.522 64.2296C153.627 64.0974 152.722 64.0264 151.815 64.0175C151.402 64.0116 150.979 64.0046 150.567 64.0023C150.08 63.9999 149.586 63.9999 149.099 63.9999V64Z" fill="#A6A6A6"/>
    <path d="M11.316 110.954C10.9028 110.954 10.4996 110.949 10.0896 110.941C9.2404 110.931 8.39315 110.866 7.55484 110.745C6.77315 110.626 6.01591 110.404 5.30809 110.087C4.60675 109.773 3.96708 109.361 3.41358 108.867C2.85206 108.379 2.38457 107.813 2.02963 107.191C1.67079 106.565 1.42245 105.894 1.29326 105.202C1.15374 104.458 1.07826 103.706 1.06746 102.952C1.05886 102.698 1.04761 101.856 1.04761 101.856V74.1291C1.04761 74.1291 1.0596 73.2992 1.06753 73.0554C1.07787 72.3025 1.15291 71.5514 1.29201 70.8085C1.42144 70.1142 1.66997 69.4414 2.02901 68.8136C2.38264 68.1922 2.84753 67.6256 3.40567 67.1357C3.96318 66.6411 4.6049 66.227 5.30742 65.9084C6.01362 65.5926 6.76943 65.3726 7.54954 65.2556C8.3906 65.1338 9.24079 65.068 10.093 65.0587L11.3166 65.044H150.684L151.922 65.0592C152.767 65.0681 153.609 65.1334 154.442 65.2544C155.23 65.3728 155.994 65.5945 156.708 65.912C158.116 66.5539 159.261 67.5695 159.983 68.8165C160.337 69.44 160.581 70.1073 160.709 70.7956C160.85 71.5446 160.929 72.3016 160.945 73.0607C160.949 73.4006 160.949 73.7657 160.949 74.1291C160.96 74.5792 160.96 75.0076 160.96 75.4395V100.559C160.96 100.995 160.96 101.421 160.949 101.85C160.949 102.24 160.949 102.598 160.944 102.966C160.928 103.711 160.85 104.455 160.712 105.19C160.585 105.888 160.338 106.564 159.98 107.195C159.622 107.81 159.157 108.371 158.602 108.858C158.048 109.354 157.407 109.769 156.704 110.085C155.992 110.404 155.23 110.627 154.442 110.745C153.604 110.866 152.757 110.932 151.908 110.941C151.51 110.949 151.094 110.954 150.691 110.954L149.221 110.956L11.316 110.954Z" fill="black"/>
    <path d="M39.3568 88.3608C39.3697 87.3592 39.6357 86.3771 40.1301 85.506C40.6246 84.6348 41.3313 83.9029 42.1846 83.3783C41.6425 82.6041 40.9274 81.967 40.096 81.5175C39.2646 81.0681 38.3399 80.8187 37.3952 80.7891C35.3801 80.5776 33.4266 81.9949 32.3998 81.9949C31.353 81.9949 29.772 80.8101 28.0695 80.8451C26.9683 80.8807 25.8951 81.2009 24.9545 81.7746C24.0138 82.3483 23.2378 83.1558 22.702 84.1186C20.3812 88.1367 22.1124 94.0419 24.3355 97.2899C25.4478 98.8803 26.7477 100.657 28.4486 100.594C30.1131 100.525 30.7348 99.5325 32.7439 99.5325C34.7344 99.5325 35.3177 100.594 37.0531 100.554C38.8392 100.525 39.9645 98.9563 41.0377 97.3508C41.8369 96.2176 42.4519 94.9651 42.8598 93.6398C41.8222 93.2009 40.9367 92.4663 40.3137 91.5275C39.6908 90.5888 39.358 89.4874 39.3568 88.3608V88.3608Z" fill="white"/>
    <path d="M36.0788 78.653C37.0526 77.484 37.5324 75.9814 37.4162 74.4643C35.9284 74.6206 34.5541 75.3316 33.5671 76.4558C33.0845 77.005 32.715 77.6439 32.4795 78.3361C32.244 79.0282 32.1472 79.7599 32.1947 80.4895C32.9388 80.4972 33.675 80.3359 34.3478 80.0178C35.0206 79.6997 35.6125 79.233 36.0788 78.653Z" fill="white"/>
    <path d="M60.3968 96.5676H54.7168L53.3527 100.595H50.9468L56.3269 85.6937H58.8265L64.2066 100.595H61.7597L60.3968 96.5676ZM55.305 94.709H59.8074L57.5879 88.1723H57.5258L55.305 94.709Z" fill="white"/>
    <path d="M75.8258 95.1637C75.8258 98.5398 74.0187 100.709 71.2918 100.709C70.601 100.745 69.914 100.586 69.3094 100.25C68.7049 99.9137 68.2072 99.414 67.8734 98.8082H67.8218V104.189H65.5917V89.7309H67.7504V91.5379H67.7914C68.1405 90.9349 68.6466 90.4379 69.2558 90.0997C69.8649 89.7615 70.5544 89.5947 71.2508 89.6172C74.0081 89.6172 75.8258 91.7969 75.8258 95.1637ZM73.5336 95.1637C73.5336 92.9641 72.3968 91.518 70.6625 91.518C68.9586 91.518 67.8125 92.9945 67.8125 95.1637C67.8125 97.3527 68.9586 98.8188 70.6625 98.8188C72.3969 98.8188 73.5336 97.3832 73.5336 95.1637Z" fill="white"/>
    <path d="M87.7836 95.1637C87.7836 98.5398 85.9765 100.709 83.2496 100.709C82.5588 100.745 81.8718 100.586 81.2673 100.25C80.6627 99.9136 80.165 99.414 79.8312 98.8082H79.7796V104.189H77.5496V89.7308H79.7081V91.5379H79.7492C80.0983 90.9349 80.6044 90.4379 81.2135 90.0997C81.8227 89.7615 82.5122 89.5947 83.2085 89.6172C85.966 89.6172 87.7836 91.7969 87.7836 95.1637ZM85.4914 95.1637C85.4914 92.9641 84.3547 91.518 82.6203 91.518C80.9164 91.518 79.7703 92.9945 79.7703 95.1637C79.7703 97.3527 80.9164 98.8187 82.6203 98.8187C84.3547 98.8187 85.4914 97.3832 85.4914 95.1637H85.4914Z" fill="white"/>
    <path d="M95.6867 96.4434C95.852 97.9211 97.2875 98.8914 99.2492 98.8914C101.129 98.8914 102.481 97.9211 102.481 96.5886C102.481 95.432 101.666 94.7394 99.7344 94.2648L97.8031 93.7996C95.0668 93.1386 93.7965 91.8589 93.7965 89.7824C93.7965 87.2113 96.0371 85.4453 99.2187 85.4453C102.368 85.4453 104.526 87.2113 104.599 89.7824H102.348C102.213 88.2953 100.984 87.3976 99.1871 87.3976C97.3906 87.3976 96.1613 88.3058 96.1613 89.6277C96.1613 90.6812 96.9465 91.3011 98.8672 91.7757L100.509 92.1788C103.566 92.9019 104.837 94.13 104.837 96.3097C104.837 99.0976 102.616 100.844 99.0839 100.844C95.7793 100.844 93.548 99.1386 93.4039 96.4432L95.6867 96.4434Z" fill="white"/>
    <path d="M109.65 87.1598V89.7309H111.716V91.4969H109.65V97.4864C109.65 98.4168 110.063 98.8504 110.971 98.8504C111.217 98.8461 111.462 98.8289 111.705 98.7988V100.554C111.297 100.631 110.882 100.665 110.466 100.657C108.267 100.657 107.409 99.8312 107.409 97.7242V91.4969H105.829V89.7309H107.409V87.1598H109.65Z" fill="white"/>
    <path d="M112.912 95.1637C112.912 91.7453 114.925 89.5973 118.065 89.5973C121.215 89.5973 123.219 91.7453 123.219 95.1637C123.219 98.5914 121.225 100.73 118.065 100.73C114.905 100.73 112.912 98.5914 112.912 95.1637ZM120.946 95.1637C120.946 92.8188 119.872 91.4348 118.065 91.4348C116.258 91.4348 115.184 92.8293 115.184 95.1637C115.184 97.518 116.258 98.8914 118.065 98.8914C119.872 98.8914 120.946 97.518 120.946 95.1637H120.946Z" fill="white"/>
    <path d="M125.057 89.7309H127.184V91.5801H127.236C127.38 91.0025 127.718 90.4921 128.194 90.1347C128.67 89.7772 129.254 89.5945 129.849 89.6172C130.106 89.6163 130.362 89.6442 130.613 89.7004V91.7863C130.289 91.6872 129.95 91.6417 129.611 91.6516C129.287 91.6384 128.964 91.6955 128.665 91.819C128.365 91.9425 128.095 92.1294 127.874 92.3668C127.654 92.6043 127.487 92.8867 127.386 93.1947C127.284 93.5027 127.251 93.829 127.287 94.1512V100.595H125.057L125.057 89.7309Z" fill="white"/>
    <path d="M140.895 97.4043C140.595 99.3766 138.675 100.73 136.217 100.73C133.057 100.73 131.095 98.6125 131.095 95.2153C131.095 91.8074 133.067 89.5973 136.123 89.5973C139.129 89.5973 141.02 91.6621 141.02 94.9563V95.7203H133.346V95.8551C133.311 96.2549 133.361 96.6577 133.493 97.0367C133.625 97.4158 133.836 97.7623 134.113 98.0534C134.389 98.3444 134.725 98.5733 135.096 98.7249C135.468 98.8765 135.868 98.9472 136.269 98.9324C136.796 98.9818 137.325 98.8598 137.777 98.5844C138.229 98.3091 138.58 97.8952 138.778 97.4043L140.895 97.4043ZM133.357 94.1617H138.788C138.808 93.8022 138.754 93.4425 138.628 93.105C138.503 92.7676 138.309 92.4597 138.058 92.2008C137.808 91.9419 137.507 91.7375 137.174 91.6004C136.841 91.4633 136.483 91.3966 136.123 91.4043C135.76 91.4022 135.4 91.4719 135.064 91.6096C134.728 91.7473 134.423 91.9502 134.165 92.2065C133.908 92.4629 133.704 92.7677 133.566 93.1033C133.427 93.4388 133.356 93.7986 133.357 94.1618V94.1617Z" fill="white"/>
    <path d="M55.0255 74.4772C55.4931 74.4436 55.9622 74.5143 56.3992 74.684C56.8361 74.8537 57.2299 75.1183 57.5522 75.4586C57.8745 75.799 58.1173 76.2066 58.263 76.6521C58.4086 77.0977 58.4536 77.57 58.3947 78.035C58.3947 80.3225 57.1584 81.6374 55.0255 81.6374H52.4392V74.4772H55.0255ZM53.5513 80.6248H54.9013C55.2354 80.6447 55.5697 80.59 55.88 80.4644C56.1902 80.3389 56.4686 80.1458 56.6948 79.8991C56.921 79.6524 57.0893 79.3584 57.1875 79.0384C57.2858 78.7185 57.3114 78.3807 57.2626 78.0496C57.3079 77.7198 57.2796 77.3841 57.1799 77.0665C57.0801 76.7489 56.9114 76.4573 56.6857 76.2125C56.46 75.9678 56.183 75.7761 55.8745 75.651C55.566 75.5259 55.2337 75.4706 54.9013 75.489H53.5513V80.6248Z" fill="white"/>
    <path d="M59.6509 78.9332C59.6169 78.5781 59.6576 78.2198 59.7702 77.8813C59.8828 77.5428 60.0649 77.2316 60.3048 76.9676C60.5447 76.7037 60.8372 76.4927 61.1634 76.3484C61.4896 76.2041 61.8424 76.1295 62.1992 76.1295C62.5559 76.1295 62.9087 76.2041 63.2349 76.3484C63.5611 76.4927 63.8536 76.7037 64.0935 76.9676C64.3334 77.2316 64.5155 77.5428 64.6281 77.8813C64.7407 78.2198 64.7814 78.5781 64.7474 78.9332C64.782 79.2886 64.7419 79.6474 64.6296 79.9864C64.5173 80.3255 64.3353 80.6373 64.0953 80.9018C63.8553 81.1662 63.5626 81.3776 63.236 81.5223C62.9095 81.6669 62.5563 81.7416 62.1992 81.7416C61.842 81.7416 61.4888 81.6669 61.1623 81.5223C60.8357 81.3776 60.543 81.1662 60.303 80.9018C60.0631 80.6373 59.8811 80.3255 59.7687 79.9864C59.6564 79.6474 59.6163 79.2886 59.6509 78.9332V78.9332ZM63.6505 78.9332C63.6505 77.7619 63.1243 77.0769 62.2009 77.0769C61.274 77.0769 60.7525 77.7619 60.7525 78.9332C60.7525 80.1138 61.274 80.7935 62.2009 80.7935C63.1244 80.7935 63.6505 80.1091 63.6505 78.9332H63.6505Z" fill="white"/>
    <path d="M71.522 81.6373H70.4158L69.299 77.6576H69.2146L68.1025 81.6373H67.0068L65.5173 76.2338H66.599L67.5669 80.357H67.6466L68.7576 76.2338H69.7806L70.8916 80.357H70.9759L71.9392 76.2338H73.0056L71.522 81.6373Z" fill="white"/>
    <path d="M74.2584 76.2338H75.2849V77.0922H75.3646C75.4998 76.7839 75.7278 76.5254 76.0169 76.3528C76.3059 76.1803 76.6416 76.1022 76.9771 76.1295C77.24 76.1097 77.504 76.1493 77.7496 76.2455C77.9951 76.3416 78.2158 76.4917 78.3954 76.6847C78.5751 76.8777 78.7089 77.1087 78.7872 77.3605C78.8654 77.6122 78.886 77.8784 78.8474 78.1392V81.6372H77.781V78.407C77.781 77.5387 77.4037 77.1068 76.615 77.1068C76.4365 77.0985 76.2583 77.1289 76.0926 77.1959C75.927 77.2629 75.7777 77.3649 75.6552 77.495C75.5326 77.625 75.4397 77.78 75.3826 77.9494C75.3256 78.1188 75.3059 78.2985 75.3248 78.4761V81.6373H74.2584L74.2584 76.2338Z" fill="white"/>
    <path d="M80.5466 74.1244H81.613V81.6373H80.5466V74.1244Z" fill="white"/>
    <path d="M83.0955 78.9332C83.0615 78.5781 83.1022 78.2198 83.2148 77.8813C83.3274 77.5428 83.5096 77.2316 83.7495 76.9676C83.9895 76.7036 84.282 76.4927 84.6082 76.3483C84.9344 76.204 85.2873 76.1295 85.644 76.1295C86.0007 76.1295 86.3535 76.204 86.6798 76.3483C87.006 76.4927 87.2985 76.7036 87.5385 76.9676C87.7784 77.2316 87.9605 77.5428 88.0732 77.8813C88.1858 78.2198 88.2265 78.5781 88.1925 78.9332C88.2271 79.2887 88.1869 79.6475 88.0746 79.9865C87.9622 80.3255 87.7802 80.6373 87.5402 80.9018C87.3002 81.1663 87.0075 81.3776 86.6809 81.5223C86.3544 81.6669 86.0012 81.7416 85.644 81.7416C85.2868 81.7416 84.9336 81.6669 84.6071 81.5223C84.2805 81.3776 83.9878 81.1663 83.7478 80.9018C83.5078 80.6373 83.3258 80.3255 83.2134 79.9865C83.1011 79.6475 83.0609 79.2887 83.0955 78.9332V78.9332ZM87.0951 78.9332C87.0951 77.7619 86.5689 77.077 85.6455 77.077C84.7185 77.077 84.1971 77.7619 84.1971 78.9332C84.1971 80.1139 84.7185 80.7936 85.6455 80.7936C86.5689 80.7936 87.0951 80.1092 87.0951 78.9332H87.0951Z" fill="white"/>
    <path d="M89.3152 80.1092C89.3152 79.1365 90.0394 78.5758 91.3249 78.4961L92.7886 78.4117V77.9453C92.7886 77.3746 92.4113 77.0524 91.6824 77.0524C91.0871 77.0524 90.6746 77.2709 90.5562 77.653H89.5238C89.6328 76.7248 90.5058 76.1295 91.7316 76.1295C93.0863 76.1295 93.8503 76.8039 93.8503 77.9453V81.6373H92.8238V80.878H92.7394C92.5682 81.1503 92.3277 81.3724 92.0425 81.5215C91.7574 81.6705 91.4378 81.7412 91.1164 81.7264C90.8895 81.7499 90.6603 81.7257 90.4433 81.6553C90.2264 81.5849 90.0267 81.4698 89.857 81.3174C89.6873 81.165 89.5514 80.9788 89.4581 80.7707C89.3648 80.5626 89.3161 80.3373 89.3152 80.1092V80.1092ZM92.7886 79.6475V79.1957L91.4691 79.2801C90.725 79.3299 90.3874 79.583 90.3874 80.0594C90.3874 80.5457 90.8093 80.8287 91.3894 80.8287C91.5594 80.8459 91.7311 80.8288 91.8943 80.7783C92.0575 80.7277 92.2089 80.6449 92.3395 80.5347C92.47 80.4245 92.577 80.2892 92.6542 80.1367C92.7314 79.9843 92.7771 79.8179 92.7886 79.6475V79.6475Z" fill="white"/>
    <path d="M95.2519 78.9332C95.2519 77.2258 96.1296 76.1441 97.4949 76.1441C97.8326 76.1286 98.1677 76.2095 98.4611 76.3773C98.7546 76.5452 98.9942 76.7931 99.1519 77.0921H99.2316V74.1244H100.298V81.6373H99.2761V80.7836H99.1917C99.0218 81.0806 98.7739 81.3254 98.4748 81.4916C98.1757 81.6577 97.8368 81.7389 97.4949 81.7263C96.1203 81.7264 95.2519 80.6447 95.2519 78.9332ZM96.3535 78.9332C96.3535 80.0793 96.8937 80.7689 97.7973 80.7689C98.6961 80.7689 99.2515 80.0693 99.2515 78.9379C99.2515 77.8117 98.6902 77.1021 97.7973 77.1021C96.8996 77.1021 96.3535 77.7965 96.3535 78.9332H96.3535Z" fill="white"/>
    <path d="M104.71 78.9332C104.676 78.5781 104.717 78.2198 104.829 77.8813C104.942 77.5428 105.124 77.2316 105.364 76.9676C105.604 76.7037 105.896 76.4927 106.223 76.3484C106.549 76.2041 106.902 76.1295 107.258 76.1295C107.615 76.1295 107.968 76.2041 108.294 76.3484C108.62 76.4927 108.913 76.7037 109.153 76.9676C109.393 77.2316 109.575 77.5428 109.687 77.8813C109.8 78.2198 109.841 78.5781 109.807 78.9332C109.841 79.2886 109.801 79.6474 109.689 79.9864C109.576 80.3255 109.394 80.6373 109.154 80.9018C108.914 81.1662 108.622 81.3776 108.295 81.5223C107.969 81.6669 107.616 81.7416 107.258 81.7416C106.901 81.7416 106.548 81.6669 106.221 81.5223C105.895 81.3776 105.602 81.1662 105.362 80.9018C105.122 80.6373 104.94 80.3255 104.828 79.9864C104.716 79.6474 104.675 79.2886 104.71 78.9332V78.9332ZM108.71 78.9332C108.71 77.7619 108.184 77.0769 107.26 77.0769C106.333 77.0769 105.812 77.7619 105.812 78.9332C105.812 80.1138 106.333 80.7935 107.26 80.7935C108.184 80.7935 108.71 80.1091 108.71 78.9332Z" fill="white"/>
    <path d="M111.237 76.2338H112.264V77.0922H112.344C112.479 76.7839 112.707 76.5254 112.996 76.3528C113.285 76.1803 113.621 76.1022 113.956 76.1295C114.219 76.1097 114.483 76.1493 114.729 76.2455C114.974 76.3416 115.195 76.4917 115.375 76.6847C115.554 76.8777 115.688 77.1087 115.766 77.3605C115.845 77.6122 115.865 77.8784 115.826 78.1392V81.6372H114.76V78.407C114.76 77.5387 114.383 77.1068 113.594 77.1068C113.416 77.0985 113.237 77.1289 113.072 77.1959C112.906 77.2629 112.757 77.3649 112.634 77.495C112.512 77.625 112.419 77.78 112.362 77.9494C112.305 78.1188 112.285 78.2985 112.304 78.4761V81.6373H111.237V76.2338Z" fill="white"/>
    <path d="M121.852 74.8885V76.2584H123.023V77.1567H121.852V79.9352C121.852 80.5012 122.085 80.749 122.616 80.749C122.752 80.7486 122.888 80.7404 123.023 80.7244V81.6127C122.831 81.647 122.637 81.6652 122.443 81.6672C121.257 81.6672 120.785 81.25 120.785 80.2082V77.1566H119.927V76.2584H120.785V74.8885H121.852Z" fill="white"/>
    <path d="M124.48 74.1244H125.537V77.1021H125.621C125.763 76.7909 125.997 76.531 126.292 76.3578C126.587 76.1846 126.928 76.1065 127.269 76.1342C127.53 76.1199 127.792 76.1636 128.034 76.262C128.277 76.3605 128.495 76.5113 128.673 76.7037C128.851 76.8961 128.984 77.1254 129.063 77.3751C129.142 77.6249 129.164 77.889 129.13 78.1486V81.6373H128.062V78.4117C128.062 77.5486 127.66 77.1115 126.907 77.1115C126.723 77.0965 126.539 77.1217 126.366 77.1853C126.194 77.249 126.037 77.3496 125.908 77.4801C125.778 77.6105 125.679 77.7678 125.616 77.9407C125.554 78.1137 125.53 78.2982 125.546 78.4814V81.6373H124.48L124.48 74.1244Z" fill="white"/>
    <path d="M135.348 80.1783C135.203 80.6722 134.889 81.0993 134.461 81.3851C134.033 81.6709 133.518 81.7971 133.006 81.7416C132.65 81.751 132.296 81.6828 131.969 81.5418C131.642 81.4007 131.35 81.1902 131.113 80.9249C130.875 80.6595 130.698 80.3456 130.594 80.005C130.49 79.6645 130.461 79.3053 130.51 78.9525C130.463 78.5987 130.492 78.2388 130.596 77.8971C130.699 77.5555 130.875 77.2402 131.112 76.9725C131.348 76.7048 131.639 76.491 131.965 76.3456C132.291 76.2001 132.644 76.1264 133.002 76.1295C134.505 76.1295 135.412 77.1567 135.412 78.8535V79.2256H131.596V79.2854C131.58 79.4836 131.605 79.6832 131.67 79.8713C131.735 80.0594 131.838 80.2319 131.974 80.3776C132.109 80.5234 132.274 80.6392 132.456 80.7177C132.639 80.7962 132.837 80.8356 133.035 80.8334C133.291 80.864 133.549 80.818 133.778 80.7014C134.007 80.5847 134.196 80.4027 134.321 80.1783L135.348 80.1783ZM131.596 78.4369H134.326C134.339 78.2556 134.314 78.0734 134.253 77.9021C134.192 77.7309 134.096 77.5743 133.971 77.4425C133.845 77.3106 133.694 77.2065 133.526 77.1367C133.358 77.0668 133.177 77.0329 132.996 77.0371C132.811 77.0348 132.628 77.0694 132.457 77.139C132.286 77.2085 132.131 77.3115 132.001 77.442C131.87 77.5724 131.767 77.7277 131.698 77.8985C131.629 78.0694 131.594 78.2525 131.596 78.4369H131.596Z" fill="white"/>
    </g>
    <defs>
    <linearGradient id="paint0_linear_1_2096" x1="26.1599" y1="10.4517" x2="6.02108" y2="30.5905" gradientUnits="userSpaceOnUse">
    <stop stop-color="#00A0FF"/>
    <stop offset="0.00657" stop-color="#00A1FF"/>
    <stop offset="0.2601" stop-color="#00BEFF"/>
    <stop offset="0.5122" stop-color="#00D2FF"/>
    <stop offset="0.7604" stop-color="#00DFFF"/>
    <stop offset="1" stop-color="#00E3FF"/>
    </linearGradient>
    <linearGradient id="paint1_linear_1_2096" x1="40.6014" y1="24.0018" x2="11.5652" y2="24.0018" gradientUnits="userSpaceOnUse">
    <stop stop-color="#FFE000"/>
    <stop offset="0.4087" stop-color="#FFBD00"/>
    <stop offset="0.7754" stop-color="#FFA500"/>
    <stop offset="1" stop-color="#FF9C00"/>
    </linearGradient>
    <linearGradient id="paint2_linear_1_2096" x1="29.7925" y1="26.7553" x2="2.48268" y2="54.0651" gradientUnits="userSpaceOnUse">
    <stop stop-color="#FF3A44"/>
    <stop offset="1" stop-color="#C31162"/>
    </linearGradient>
    <linearGradient id="paint3_linear_1_2096" x1="8.75704" y1="0.211526" x2="20.952" y2="12.4065" gradientUnits="userSpaceOnUse">
    <stop stop-color="#32A071"/>
    <stop offset="0.0685" stop-color="#2DA771"/>
    <stop offset="0.4762" stop-color="#15CF74"/>
    <stop offset="0.8009" stop-color="#06E775"/>
    <stop offset="1" stop-color="#00F076"/>
    </linearGradient>
    <clipPath id="clip0_1_2096">
    <rect width="161.999" height="48" fill="white" transform="translate(0.000427246)"/>
    </clipPath>
    <clipPath id="clip1_1_2096">
    <rect width="162" height="48" fill="white" transform="translate(0 64)"/>
    </clipPath>
    </defs>
    </svg>
    