<svg width="0" height="0" class="hidden">
    <symbol fill="none" xmlns="http://www.w3.org/2000/svg" viewBox="0 0 230 230" id="fire">
      <g filter="url(#filter0_d_1_1056)">
        <rect x="40" y="15" width="150" height="150" rx="40" fill="url(#paint0_linear_1_1056)"></rect>
        <mask id="mask0_1_1056" maskUnits="userSpaceOnUse" x="40" y="15" width="150" height="150">
          <rect x="40" y="15" width="150" height="150" rx="40" fill="white"></rect>
        </mask>
        <g mask="url(#mask0_1_1056)">
          <g filter="url(#filter1_f_1_1056)">
            <rect x="176.875" y="131.875" width="83.3333" height="9.58333" rx="4.79167" transform="rotate(-90 176.875 131.875)" fill="white"></rect>
          </g>
          <g filter="url(#filter2_f_1_1056)">
            <rect x="176.875" y="64.792" width="16.25" height="9.58333" rx="4.79167" transform="rotate(-90 176.875 64.792)" fill="white"></rect>
          </g>
          <g filter="url(#filter3_f_1_1056)">
            <rect x="43.5414" y="131.875" width="83.3333" height="9.58333" rx="4.79167" transform="rotate(-90 43.5414 131.875)" fill="white"></rect>
          </g>
          <g filter="url(#filter4_f_1_1056)">
            <rect x="43.5414" y="64.792" width="16.25" height="9.58333" rx="4.79167" transform="rotate(-90 43.5414 64.792)" fill="white"></rect>
          </g>
          <g filter="url(#filter5_f_1_1056)">
            <rect x="61.6661" y="24.167" width="106.667" height="12.0833" rx="6.04167" fill="white"></rect>
          </g>
        </g>
        <g clip-path="url(#clip0_1_1056)">
          <path d="M115 89.4803L120.208 101.751C120.208 103.151 119.66 104.493 118.683 105.483C117.706 106.473 116.381 107.029 115 107.029C113.619 107.029 112.294 106.473 111.317 105.483C110.34 104.493 109.792 103.151 109.792 101.751L115 89.4803ZM148.854 56.3887H81.1458C80.4551 56.3887 79.7927 56.6667 79.3044 57.1616C78.816 57.6565 78.5416 58.3277 78.5416 59.0276V66.9442C78.5416 67.6441 78.816 68.3153 79.3044 68.8102C79.7927 69.3051 80.4551 69.5831 81.1458 69.5831H148.854C149.545 69.5831 150.207 69.3051 150.696 68.8102C151.184 68.3153 151.458 67.6441 151.458 66.9442V59.0276C151.458 58.3277 151.184 57.6565 150.696 57.1616C150.207 56.6667 149.545 56.3887 148.854 56.3887ZM146.25 111.805V72.222H115C121.216 72.222 127.177 74.7242 131.573 79.1782C135.968 83.6322 138.437 89.6731 138.437 95.972V111.805H146.25ZM115 77.4998C110.165 77.4998 105.529 79.446 102.11 82.9102C98.6914 86.3744 96.7708 91.0729 96.7708 95.972V111.805H115C112.237 111.805 109.588 110.693 107.634 108.714C105.681 106.734 104.583 104.049 104.583 101.25C104.587 100.888 104.658 100.53 104.792 100.194L112.604 81.722C112.804 81.246 113.138 80.8401 113.564 80.5548C113.99 80.2695 114.489 80.1173 115 80.1173C115.511 80.1173 116.01 80.2695 116.436 80.5548C116.862 80.8401 117.196 81.246 117.396 81.722L125.208 100.194C125.342 100.53 125.413 100.888 125.417 101.25C125.417 104.049 124.319 106.734 122.366 108.714C120.412 110.693 117.763 111.805 115 111.805H133.229V95.972C133.229 91.0729 131.309 86.3744 127.89 82.9102C124.471 79.446 119.835 77.4998 115 77.4998ZM83.75 111.805H91.5625V95.972C91.5625 89.6731 94.0318 83.6322 98.4271 79.1782C102.823 74.7242 108.784 72.222 115 72.222H83.75V111.805ZM148.854 114.444H81.1458C80.4551 114.444 79.7927 114.722 79.3044 115.217C78.816 115.712 78.5416 116.383 78.5416 117.083V127.639C78.5416 128.339 78.816 129.01 79.3044 129.505C79.7927 130 80.4551 130.278 81.1458 130.278H148.854C149.545 130.278 150.207 130 150.696 129.505C151.184 129.01 151.458 128.339 151.458 127.639V117.083C151.458 116.383 151.184 115.712 150.696 115.217C150.207 114.722 149.545 114.444 148.854 114.444Z" fill="url(#paint1_linear_1_1056)"></path>
        </g>
      </g>
      <defs>
        <filter id="filter0_d_1_1056" x="0" y="0" width="230" height="230" filterUnits="userSpaceOnUse" color-interpolation-filters="sRGB">
          <feFlood flood-opacity="0" result="BackgroundImageFix"></feFlood>
          <feColorMatrix in="SourceAlpha" type="matrix" values="0 0 0 0 0 0 0 0 0 0 0 0 0 0 0 0 0 0 127 0" result="hardAlpha"></feColorMatrix>
          <feOffset dy="25"></feOffset>
          <feGaussianBlur stdDeviation="20"></feGaussianBlur>
          <feColorMatrix type="matrix" values="0 0 0 0 0 0 0 0 0 0 0 0 0 0 0 0 0 0 0.1 0"></feColorMatrix>
          <feBlend mode="normal" in2="BackgroundImageFix" result="effect1_dropShadow_1_1056"></feBlend>
          <feBlend mode="normal" in="SourceGraphic" in2="effect1_dropShadow_1_1056" result="shape"></feBlend>
        </filter>
        <filter id="filter1_f_1_1056" x="138.819" y="10.4856" width="85.6952" height="159.445" filterUnits="userSpaceOnUse" color-interpolation-filters="sRGB">
          <feFlood flood-opacity="0" result="BackgroundImageFix"></feFlood>
          <feBlend mode="normal" in="SourceGraphic" in2="BackgroundImageFix" result="shape"></feBlend>
          <feGaussianBlur stdDeviation="19.028" result="effect1_foregroundBlur_1_1056"></feGaussianBlur>
        </filter>
        <filter id="filter2_f_1_1056" x="138.819" y="10.486" width="85.6952" height="92.3619" filterUnits="userSpaceOnUse" color-interpolation-filters="sRGB">
          <feFlood flood-opacity="0" result="BackgroundImageFix"></feFlood>
          <feBlend mode="normal" in="SourceGraphic" in2="BackgroundImageFix" result="shape"></feBlend>
          <feGaussianBlur stdDeviation="19.028" result="effect1_foregroundBlur_1_1056"></feGaussianBlur>
        </filter>
        <filter id="filter3_f_1_1056" x="5.48544" y="10.4856" width="85.6952" height="159.445" filterUnits="userSpaceOnUse" color-interpolation-filters="sRGB">
          <feFlood flood-opacity="0" result="BackgroundImageFix"></feFlood>
          <feBlend mode="normal" in="SourceGraphic" in2="BackgroundImageFix" result="shape"></feBlend>
          <feGaussianBlur stdDeviation="19.028" result="effect1_foregroundBlur_1_1056"></feGaussianBlur>
        </filter>
        <filter id="filter4_f_1_1056" x="5.48544" y="10.486" width="85.6952" height="92.3619" filterUnits="userSpaceOnUse" color-interpolation-filters="sRGB">
          <feFlood flood-opacity="0" result="BackgroundImageFix"></feFlood>
          <feBlend mode="normal" in="SourceGraphic" in2="BackgroundImageFix" result="shape"></feBlend>
          <feGaussianBlur stdDeviation="19.028" result="effect1_foregroundBlur_1_1056"></feGaussianBlur>
        </filter>
        <filter id="filter5_f_1_1056" x="23.6102" y="-13.889" width="182.779" height="88.1953" filterUnits="userSpaceOnUse" color-interpolation-filters="sRGB">
          <feFlood flood-opacity="0" result="BackgroundImageFix"></feFlood>
          <feBlend mode="normal" in="SourceGraphic" in2="BackgroundImageFix" result="shape"></feBlend>
          <feGaussianBlur stdDeviation="19.028" result="effect1_foregroundBlur_1_1056"></feGaussianBlur>
        </filter>
        <linearGradient id="paint0_linear_1_1056" x1="40" y1="15" x2="40" y2="165" gradientUnits="userSpaceOnUse">
          <stop stop-color="#F7F7F7"></stop>
          <stop offset="1" stop-color="#F3F3F3"></stop>
        </linearGradient>
        <linearGradient id="paint1_linear_1_1056" x1="115" y1="56.3887" x2="115" y2="130.278" gradientUnits="userSpaceOnUse">
          <stop stop-color="#FF002E"></stop>
          <stop offset="1" stop-color="#FF3E3E"></stop>
        </linearGradient>
        <clipPath id="clip0_1_1056">
          <rect x="73.3333" y="51.1111" width="83.3333" height="105.556" rx="40" fill="white"></rect>
        </clipPath>
      </defs>
    </symbol>
    <symbol fill="none" xmlns="http://www.w3.org/2000/svg" viewBox="0 0 230 230" id="door">
      <g filter="url(#filter0_d_1_984)">
        <rect x="40" y="15" width="150" height="150" rx="40" fill="url(#paint0_linear_1_984)"></rect>
        <mask id="mask0_1_984" maskUnits="userSpaceOnUse" x="40" y="15" width="150" height="150">
          <rect x="40" y="15" width="150" height="150" rx="40" fill="white"></rect>
        </mask>
        <g mask="url(#mask0_1_984)">
          <g filter="url(#filter1_f_1_984)">
            <rect x="176.875" y="131.875" width="83.3333" height="9.58333" rx="4.79167" transform="rotate(-90 176.875 131.875)" fill="white"></rect>
          </g>
          <g filter="url(#filter2_f_1_984)">
            <rect x="176.875" y="64.7917" width="16.25" height="9.58333" rx="4.79167" transform="rotate(-90 176.875 64.7917)" fill="white"></rect>
          </g>
          <g filter="url(#filter3_f_1_984)">
            <rect x="43.541" y="131.875" width="83.3333" height="9.58333" rx="4.79167" transform="rotate(-90 43.541 131.875)" fill="white"></rect>
          </g>
          <g filter="url(#filter4_f_1_984)">
            <rect x="43.541" y="64.7917" width="16.25" height="9.58333" rx="4.79167" transform="rotate(-90 43.541 64.7917)" fill="white"></rect>
          </g>
          <g filter="url(#filter5_f_1_984)">
            <rect x="61.666" y="24.1667" width="106.667" height="12.0833" rx="6.04167" fill="white"></rect>
          </g>
        </g>
        <g clip-path="url(#clip0_1_984)">
          <path d="M140.257 56.1045L109.274 48.8245C108.357 48.6378 107.44 48.8245 106.707 49.3845C105.974 49.9445 105.607 50.8779 105.607 51.8112V56.0112H90.1155C88.4655 56.0112 87.0905 57.4112 87.0905 59.0912V127.131C87.0905 128.811 88.4655 130.211 90.1155 130.211H105.515V134.411C105.515 135.345 105.974 136.185 106.615 136.838C107.165 137.305 107.807 137.491 108.449 137.491C108.632 137.491 108.907 137.491 109.09 137.398L140.074 130.118C141.449 129.838 142.365 128.531 142.365 127.131V59.0912C142.549 57.5979 141.632 56.3845 140.257 56.1045ZM105.515 124.051H93.1405V62.0779H105.515V124.051ZM116.149 96.3312C114.407 96.3312 112.94 94.8379 112.94 93.0645C112.94 91.2912 114.407 89.7979 116.149 89.7979C117.89 89.7979 119.357 91.2912 119.357 93.0645C119.357 94.8379 117.89 96.3312 116.149 96.3312Z" fill="url(#paint1_linear_1_984)"></path>
        </g>
      </g>
      <defs>
        <filter id="filter0_d_1_984" x="0" y="0" width="230" height="230" filterUnits="userSpaceOnUse" color-interpolation-filters="sRGB">
          <feFlood flood-opacity="0" result="BackgroundImageFix"></feFlood>
          <feColorMatrix in="SourceAlpha" type="matrix" values="0 0 0 0 0 0 0 0 0 0 0 0 0 0 0 0 0 0 127 0" result="hardAlpha"></feColorMatrix>
          <feOffset dy="25"></feOffset>
          <feGaussianBlur stdDeviation="20"></feGaussianBlur>
          <feColorMatrix type="matrix" values="0 0 0 0 0 0 0 0 0 0 0 0 0 0 0 0 0 0 0.1 0"></feColorMatrix>
          <feBlend mode="normal" in2="BackgroundImageFix" result="effect1_dropShadow_1_984"></feBlend>
          <feBlend mode="normal" in="SourceGraphic" in2="effect1_dropShadow_1_984" result="shape"></feBlend>
        </filter>
        <filter id="filter1_f_1_984" x="138.819" y="10.4854" width="85.6952" height="159.445" filterUnits="userSpaceOnUse" color-interpolation-filters="sRGB">
          <feFlood flood-opacity="0" result="BackgroundImageFix"></feFlood>
          <feBlend mode="normal" in="SourceGraphic" in2="BackgroundImageFix" result="shape"></feBlend>
          <feGaussianBlur stdDeviation="19.028" result="effect1_foregroundBlur_1_984"></feGaussianBlur>
        </filter>
        <filter id="filter2_f_1_984" x="138.819" y="10.4858" width="85.6952" height="92.3619" filterUnits="userSpaceOnUse" color-interpolation-filters="sRGB">
          <feFlood flood-opacity="0" result="BackgroundImageFix"></feFlood>
          <feBlend mode="normal" in="SourceGraphic" in2="BackgroundImageFix" result="shape"></feBlend>
          <feGaussianBlur stdDeviation="19.028" result="effect1_foregroundBlur_1_984"></feGaussianBlur>
        </filter>
        <filter id="filter3_f_1_984" x="5.48507" y="10.4854" width="85.6952" height="159.445" filterUnits="userSpaceOnUse" color-interpolation-filters="sRGB">
          <feFlood flood-opacity="0" result="BackgroundImageFix"></feFlood>
          <feBlend mode="normal" in="SourceGraphic" in2="BackgroundImageFix" result="shape"></feBlend>
          <feGaussianBlur stdDeviation="19.028" result="effect1_foregroundBlur_1_984"></feGaussianBlur>
        </filter>
        <filter id="filter4_f_1_984" x="5.48507" y="10.4858" width="85.6952" height="92.3619" filterUnits="userSpaceOnUse" color-interpolation-filters="sRGB">
          <feFlood flood-opacity="0" result="BackgroundImageFix"></feFlood>
          <feBlend mode="normal" in="SourceGraphic" in2="BackgroundImageFix" result="shape"></feBlend>
          <feGaussianBlur stdDeviation="19.028" result="effect1_foregroundBlur_1_984"></feGaussianBlur>
        </filter>
        <filter id="filter5_f_1_984" x="23.61" y="-13.8892" width="182.779" height="88.1953" filterUnits="userSpaceOnUse" color-interpolation-filters="sRGB">
          <feFlood flood-opacity="0" result="BackgroundImageFix"></feFlood>
          <feBlend mode="normal" in="SourceGraphic" in2="BackgroundImageFix" result="shape"></feBlend>
          <feGaussianBlur stdDeviation="19.028" result="effect1_foregroundBlur_1_984"></feGaussianBlur>
        </filter>
        <linearGradient id="paint0_linear_1_984" x1="40" y1="15" x2="40" y2="165" gradientUnits="userSpaceOnUse">
          <stop stop-color="white"></stop>
          <stop offset="1" stop-color="#F0F0F0"></stop>
        </linearGradient>
        <linearGradient id="paint1_linear_1_984" x1="114.74" y1="48.7545" x2="114.74" y2="137.491" gradientUnits="userSpaceOnUse">
          <stop stop-color="#D36500"></stop>
          <stop offset="1" stop-color="#FF9900"></stop>
        </linearGradient>
        <clipPath id="clip0_1_984">
          <rect width="91.6667" height="116.667" fill="white" transform="translate(69.0322 46.3978)"></rect>
        </clipPath>
      </defs>
    </symbol>
    <symbol fill="none" xmlns="http://www.w3.org/2000/svg" viewBox="0 0 230 230" id="bone">
      <g filter="url(#filter0_d_1_1073)">
        <rect x="40" y="15" width="150" height="150" rx="40" fill="url(#paint0_linear_1_1073)"></rect>
        <mask id="mask0_1_1073" maskUnits="userSpaceOnUse" x="40" y="15" width="150" height="150">
          <rect x="40" y="15" width="150" height="150" rx="40" fill="white"></rect>
        </mask>
        <g mask="url(#mask0_1_1073)">
          <g filter="url(#filter1_f_1_1073)">
            <rect x="176.875" y="131.875" width="83.3333" height="9.58333" rx="4.79167" transform="rotate(-90 176.875 131.875)" fill="white"></rect>
          </g>
          <g filter="url(#filter2_f_1_1073)">
            <rect x="176.875" y="64.792" width="16.25" height="9.58333" rx="4.79167" transform="rotate(-90 176.875 64.792)" fill="white"></rect>
          </g>
          <g filter="url(#filter3_f_1_1073)">
            <rect x="43.5414" y="131.875" width="83.3333" height="9.58333" rx="4.79167" transform="rotate(-90 43.5414 131.875)" fill="white"></rect>
          </g>
          <g filter="url(#filter4_f_1_1073)">
            <rect x="43.5414" y="64.792" width="16.25" height="9.58333" rx="4.79167" transform="rotate(-90 43.5414 64.792)" fill="white"></rect>
          </g>
          <g filter="url(#filter5_f_1_1073)">
            <rect x="61.6661" y="24.1669" width="106.667" height="12.0833" rx="6.04167" fill="white"></rect>
          </g>
        </g>
      </g>
      <g clip-path="url(#clip0_1_1073)">
        <path d="M148.428 73.7945C147.361 72.6976 146.074 71.8541 144.657 71.3233C143.24 70.7925 141.726 70.5873 140.224 70.722C140.373 68.9404 140.084 67.1487 139.382 65.5125C138.681 63.8764 137.589 62.4486 136.209 61.3612C134.829 60.2737 133.204 59.5617 131.486 59.291C129.767 59.0202 128.01 59.1994 126.376 59.8121C124.743 60.4247 123.286 61.451 122.14 62.7961C120.995 64.1412 120.197 65.7616 119.822 67.5077C119.446 69.2537 119.504 71.069 119.991 72.7857C120.478 74.5024 121.378 76.0652 122.607 77.3295C122.656 77.3795 122.705 77.4295 122.756 77.4795L96.3445 104.642C96.2959 104.591 96.2473 104.542 96.1987 104.491C94.9696 103.225 93.4501 102.298 91.7807 101.797C90.1113 101.295 88.3458 101.234 86.6476 101.62C84.9494 102.006 83.3732 102.827 82.0648 104.005C80.7565 105.184 79.7582 106.683 79.1623 108.364C78.5664 110.044 78.3922 111.852 78.6556 113.621C78.9191 115.389 79.6118 117.06 80.6697 118.48C81.7275 119.9 83.1164 121.023 84.7079 121.744C86.2993 122.466 88.042 122.763 89.7747 122.608C89.6249 124.39 89.9142 126.182 90.6158 127.818C91.3174 129.454 92.4086 130.882 93.7887 131.969C95.1688 133.057 96.7932 133.769 98.5117 134.04C100.23 134.311 101.987 134.132 103.621 133.52C105.254 132.907 106.711 131.881 107.857 130.536C109.003 129.191 109.801 127.571 110.177 125.825C110.552 124.079 110.494 122.264 110.008 120.547C109.521 118.83 108.621 117.267 107.392 116.003C107.343 115.952 107.295 115.903 107.246 115.853L133.655 88.6883C133.704 88.7395 133.752 88.7908 133.801 88.8408C135.741 90.836 138.372 91.9569 141.115 91.9569C142.473 91.9569 143.818 91.6817 145.073 91.1471C146.328 90.6124 147.469 89.8287 148.429 88.8408C149.39 87.8528 150.152 86.6799 150.671 85.3891C151.191 84.0983 151.459 82.7148 151.459 81.3176C151.459 79.9205 151.191 78.537 150.671 77.2461C150.152 75.9553 149.39 74.7825 148.429 73.7945H148.428Z" fill="url(#paint1_linear_1_1073)"></path>
      </g>
      <defs>
        <filter id="filter0_d_1_1073" x="0" y="0" width="230" height="230" filterUnits="userSpaceOnUse" color-interpolation-filters="sRGB">
          <feFlood flood-opacity="0" result="BackgroundImageFix"></feFlood>
          <feColorMatrix in="SourceAlpha" type="matrix" values="0 0 0 0 0 0 0 0 0 0 0 0 0 0 0 0 0 0 127 0" result="hardAlpha"></feColorMatrix>
          <feOffset dy="25"></feOffset>
          <feGaussianBlur stdDeviation="20"></feGaussianBlur>
          <feColorMatrix type="matrix" values="0 0 0 0 0 0 0 0 0 0 0 0 0 0 0 0 0 0 0.1 0"></feColorMatrix>
          <feBlend mode="normal" in2="BackgroundImageFix" result="effect1_dropShadow_1_1073"></feBlend>
          <feBlend mode="normal" in="SourceGraphic" in2="effect1_dropShadow_1_1073" result="shape"></feBlend>
        </filter>
        <filter id="filter1_f_1_1073" x="138.819" y="10.4856" width="85.6952" height="159.445" filterUnits="userSpaceOnUse" color-interpolation-filters="sRGB">
          <feFlood flood-opacity="0" result="BackgroundImageFix"></feFlood>
          <feBlend mode="normal" in="SourceGraphic" in2="BackgroundImageFix" result="shape"></feBlend>
          <feGaussianBlur stdDeviation="19.028" result="effect1_foregroundBlur_1_1073"></feGaussianBlur>
        </filter>
        <filter id="filter2_f_1_1073" x="138.819" y="10.486" width="85.6952" height="92.3619" filterUnits="userSpaceOnUse" color-interpolation-filters="sRGB">
          <feFlood flood-opacity="0" result="BackgroundImageFix"></feFlood>
          <feBlend mode="normal" in="SourceGraphic" in2="BackgroundImageFix" result="shape"></feBlend>
          <feGaussianBlur stdDeviation="19.028" result="effect1_foregroundBlur_1_1073"></feGaussianBlur>
        </filter>
        <filter id="filter3_f_1_1073" x="5.48544" y="10.4856" width="85.6952" height="159.445" filterUnits="userSpaceOnUse" color-interpolation-filters="sRGB">
          <feFlood flood-opacity="0" result="BackgroundImageFix"></feFlood>
          <feBlend mode="normal" in="SourceGraphic" in2="BackgroundImageFix" result="shape"></feBlend>
          <feGaussianBlur stdDeviation="19.028" result="effect1_foregroundBlur_1_1073"></feGaussianBlur>
        </filter>
        <filter id="filter4_f_1_1073" x="5.48544" y="10.486" width="85.6952" height="92.3619" filterUnits="userSpaceOnUse" color-interpolation-filters="sRGB">
          <feFlood flood-opacity="0" result="BackgroundImageFix"></feFlood>
          <feBlend mode="normal" in="SourceGraphic" in2="BackgroundImageFix" result="shape"></feBlend>
          <feGaussianBlur stdDeviation="19.028" result="effect1_foregroundBlur_1_1073"></feGaussianBlur>
        </filter>
        <filter id="filter5_f_1_1073" x="23.6102" y="-13.8891" width="182.779" height="88.1953" filterUnits="userSpaceOnUse" color-interpolation-filters="sRGB">
          <feFlood flood-opacity="0" result="BackgroundImageFix"></feFlood>
          <feBlend mode="normal" in="SourceGraphic" in2="BackgroundImageFix" result="shape"></feBlend>
          <feGaussianBlur stdDeviation="19.028" result="effect1_foregroundBlur_1_1073"></feGaussianBlur>
        </filter>
        <linearGradient id="paint0_linear_1_1073" x1="40" y1="15" x2="40" y2="165" gradientUnits="userSpaceOnUse">
          <stop stop-color="#F7F7F7"></stop>
          <stop offset="1" stop-color="#F1F1F1"></stop>
        </linearGradient>
        <linearGradient id="paint1_linear_1_1073" x1="114.997" y1="59.1683" x2="114.997" y2="134.163" gradientUnits="userSpaceOnUse">
          <stop stop-color="#FFA800"></stop>
          <stop offset="1" stop-color="#B77900"></stop>
        </linearGradient>
        <clipPath id="clip0_1_1073">
          <rect x="76.1111" y="56.6666" width="77.7778" height="100" rx="38.8889" fill="white"></rect>
        </clipPath>
      </defs>
    </symbol>
    <symbol fill="none" xmlns="http://www.w3.org/2000/svg" viewBox="0 0 230 230" id="gol">
      <g filter="url(#filter0_d_1_1026)">
        <rect x="40" y="15" width="150" height="150" rx="40" fill="url(#paint0_linear_1_1026)"></rect>
        <mask id="mask0_1_1026" maskUnits="userSpaceOnUse" x="40" y="15" width="150" height="150">
          <rect x="40" y="15" width="150" height="150" rx="40" fill="white"></rect>
        </mask>
        <g mask="url(#mask0_1_1026)">
          <g filter="url(#filter1_f_1_1026)">
            <rect x="176.875" y="131.875" width="83.3333" height="9.58333" rx="4.79167" transform="rotate(-90 176.875 131.875)" fill="white"></rect>
          </g>
          <g filter="url(#filter2_f_1_1026)">
            <rect x="176.875" y="64.7919" width="16.25" height="9.58333" rx="4.79167" transform="rotate(-90 176.875 64.7919)" fill="white"></rect>
          </g>
          <g filter="url(#filter3_f_1_1026)">
            <rect x="43.5419" y="131.875" width="83.3333" height="9.58333" rx="4.79167" transform="rotate(-90 43.5419 131.875)" fill="white"></rect>
          </g>
          <g filter="url(#filter4_f_1_1026)">
            <rect x="43.5419" y="64.7919" width="16.25" height="9.58333" rx="4.79167" transform="rotate(-90 43.5419 64.7919)" fill="white"></rect>
          </g>
          <g filter="url(#filter5_f_1_1026)">
            <rect x="61.6669" y="24.1667" width="106.667" height="12.0833" rx="6.04167" fill="white"></rect>
          </g>
        </g>
        <path d="M146.25 58.7502V65.6946C146.25 79.1182 135.368 90.0002 121.945 90.0002H118.472V93.4724H135.833V117.778C135.833 121.615 132.726 124.722 128.889 124.722H101.111C97.2744 124.722 94.1668 121.615 94.1668 117.778V93.4724H111.528V83.0557C111.528 69.6321 122.41 58.7502 135.833 58.7502H146.25ZM92.4307 55.278C101.212 55.278 108.976 59.6217 113.695 66.2814C110.153 70.9377 108.056 76.7536 108.056 83.0557V86.528H106.32C91.9376 86.528 80.2779 74.8682 80.2779 60.4863V55.278H92.4307Z" fill="url(#paint1_linear_1_1026)"></path>
      </g>
      <defs>
        <filter id="filter0_d_1_1026" x="0" y="0" width="230" height="230" filterUnits="userSpaceOnUse" color-interpolation-filters="sRGB">
          <feFlood flood-opacity="0" result="BackgroundImageFix"></feFlood>
          <feColorMatrix in="SourceAlpha" type="matrix" values="0 0 0 0 0 0 0 0 0 0 0 0 0 0 0 0 0 0 127 0" result="hardAlpha"></feColorMatrix>
          <feOffset dy="25"></feOffset>
          <feGaussianBlur stdDeviation="20"></feGaussianBlur>
          <feColorMatrix type="matrix" values="0 0 0 0 0 0 0 0 0 0 0 0 0 0 0 0 0 0 0.1 0"></feColorMatrix>
          <feBlend mode="normal" in2="BackgroundImageFix" result="effect1_dropShadow_1_1026"></feBlend>
          <feBlend mode="normal" in="SourceGraphic" in2="effect1_dropShadow_1_1026" result="shape"></feBlend>
        </filter>
        <filter id="filter1_f_1_1026" x="138.819" y="10.4854" width="85.6952" height="159.445" filterUnits="userSpaceOnUse" color-interpolation-filters="sRGB">
          <feFlood flood-opacity="0" result="BackgroundImageFix"></feFlood>
          <feBlend mode="normal" in="SourceGraphic" in2="BackgroundImageFix" result="shape"></feBlend>
          <feGaussianBlur stdDeviation="19.028" result="effect1_foregroundBlur_1_1026"></feGaussianBlur>
        </filter>
        <filter id="filter2_f_1_1026" x="138.819" y="10.4859" width="85.6952" height="92.3619" filterUnits="userSpaceOnUse" color-interpolation-filters="sRGB">
          <feFlood flood-opacity="0" result="BackgroundImageFix"></feFlood>
          <feBlend mode="normal" in="SourceGraphic" in2="BackgroundImageFix" result="shape"></feBlend>
          <feGaussianBlur stdDeviation="19.028" result="effect1_foregroundBlur_1_1026"></feGaussianBlur>
        </filter>
        <filter id="filter3_f_1_1026" x="5.48598" y="10.4854" width="85.6952" height="159.445" filterUnits="userSpaceOnUse" color-interpolation-filters="sRGB">
          <feFlood flood-opacity="0" result="BackgroundImageFix"></feFlood>
          <feBlend mode="normal" in="SourceGraphic" in2="BackgroundImageFix" result="shape"></feBlend>
          <feGaussianBlur stdDeviation="19.028" result="effect1_foregroundBlur_1_1026"></feGaussianBlur>
        </filter>
        <filter id="filter4_f_1_1026" x="5.48598" y="10.4859" width="85.6952" height="92.3619" filterUnits="userSpaceOnUse" color-interpolation-filters="sRGB">
          <feFlood flood-opacity="0" result="BackgroundImageFix"></feFlood>
          <feBlend mode="normal" in="SourceGraphic" in2="BackgroundImageFix" result="shape"></feBlend>
          <feGaussianBlur stdDeviation="19.028" result="effect1_foregroundBlur_1_1026"></feGaussianBlur>
        </filter>
        <filter id="filter5_f_1_1026" x="23.611" y="-13.8892" width="182.779" height="88.1953" filterUnits="userSpaceOnUse" color-interpolation-filters="sRGB">
          <feFlood flood-opacity="0" result="BackgroundImageFix"></feFlood>
          <feBlend mode="normal" in="SourceGraphic" in2="BackgroundImageFix" result="shape"></feBlend>
          <feGaussianBlur stdDeviation="19.028" result="effect1_foregroundBlur_1_1026"></feGaussianBlur>
        </filter>
        <linearGradient id="paint0_linear_1_1026" x1="40" y1="15" x2="40" y2="165" gradientUnits="userSpaceOnUse">
          <stop stop-color="#FCFCFC"></stop>
          <stop offset="1" stop-color="#F1F1F1"></stop>
        </linearGradient>
        <linearGradient id="paint1_linear_1_1026" x1="113.264" y1="55.278" x2="113.264" y2="124.722" gradientUnits="userSpaceOnUse">
          <stop stop-color="#1CC91D"></stop>
          <stop offset="1" stop-color="#6CA425"></stop>
        </linearGradient>
      </defs>
    </symbol>
    <symbol fill="none" xmlns="http://www.w3.org/2000/svg" viewBox="0 0 230 230" id="lamp">
      <g filter="url(#filter0_d_1_1039)">
        <rect x="40" y="15" width="150" height="150" rx="40" fill="url(#paint0_linear_1_1039)"></rect>
        <mask id="mask0_1_1039" maskUnits="userSpaceOnUse" x="40" y="15" width="150" height="150">
          <rect x="40" y="15" width="150" height="150" rx="40" fill="white"></rect>
        </mask>
        <g mask="url(#mask0_1_1039)">
          <g filter="url(#filter1_f_1_1039)">
            <rect x="176.875" y="131.875" width="83.3333" height="9.58333" rx="4.79167" transform="rotate(-90 176.875 131.875)" fill="white"></rect>
          </g>
          <g filter="url(#filter2_f_1_1039)">
            <rect x="176.875" y="64.7919" width="16.25" height="9.58333" rx="4.79167" transform="rotate(-90 176.875 64.7919)" fill="white"></rect>
          </g>
          <g filter="url(#filter3_f_1_1039)">
            <rect x="43.5413" y="131.875" width="83.3333" height="9.58333" rx="4.79167" transform="rotate(-90 43.5413 131.875)" fill="white"></rect>
          </g>
          <g filter="url(#filter4_f_1_1039)">
            <rect x="43.5413" y="64.7919" width="16.25" height="9.58333" rx="4.79167" transform="rotate(-90 43.5413 64.7919)" fill="white"></rect>
          </g>
          <g filter="url(#filter5_f_1_1039)">
            <rect x="61.6661" y="24.1667" width="106.667" height="12.0833" rx="6.04167" fill="white"></rect>
          </g>
        </g>
        <g clip-path="url(#clip0_1_1039)">
          <path d="M102.267 121.666H127.733C126.973 124.491 125.315 126.984 123.014 128.762C120.712 130.54 117.896 131.503 115 131.503C112.103 131.503 109.287 130.54 106.986 128.762C104.685 126.984 103.027 124.491 102.267 121.666ZM144.391 113.633L131.493 84.2997V68.333C131.493 67.449 131.145 66.6011 130.527 65.976C129.908 65.3509 129.069 64.9997 128.194 64.9997H118.299V41.6663C118.299 40.7823 117.951 39.9344 117.332 39.3093C116.714 38.6842 115.875 38.333 115 38.333C114.125 38.333 113.286 38.6842 112.667 39.3093C112.049 39.9344 111.701 40.7823 111.701 41.6663V64.9997H101.805C100.931 64.9997 100.092 65.3509 99.473 65.976C98.8544 66.6011 98.5069 67.449 98.5069 68.333V84.2997L85.6093 113.633C85.3837 114.14 85.2873 114.696 85.3287 115.251C85.3701 115.805 85.548 116.34 85.8464 116.807C86.1447 117.274 86.554 117.659 87.0368 117.925C87.5197 118.192 88.0609 118.332 88.611 118.333H141.389C141.939 118.332 142.48 118.192 142.963 117.925C143.446 117.659 143.855 117.274 144.153 116.807C144.452 116.34 144.63 115.805 144.671 115.251C144.713 114.696 144.616 114.14 144.391 113.633Z" fill="url(#paint1_linear_1_1039)"></path>
        </g>
      </g>
      <defs>
        <filter id="filter0_d_1_1039" x="0" y="0" width="230" height="230" filterUnits="userSpaceOnUse" color-interpolation-filters="sRGB">
          <feFlood flood-opacity="0" result="BackgroundImageFix"></feFlood>
          <feColorMatrix in="SourceAlpha" type="matrix" values="0 0 0 0 0 0 0 0 0 0 0 0 0 0 0 0 0 0 127 0" result="hardAlpha"></feColorMatrix>
          <feOffset dy="25"></feOffset>
          <feGaussianBlur stdDeviation="20"></feGaussianBlur>
          <feColorMatrix type="matrix" values="0 0 0 0 0 0 0 0 0 0 0 0 0 0 0 0 0 0 0.1 0"></feColorMatrix>
          <feBlend mode="normal" in2="BackgroundImageFix" result="effect1_dropShadow_1_1039"></feBlend>
          <feBlend mode="normal" in="SourceGraphic" in2="effect1_dropShadow_1_1039" result="shape"></feBlend>
        </filter>
        <filter id="filter1_f_1_1039" x="138.819" y="10.4854" width="85.6952" height="159.445" filterUnits="userSpaceOnUse" color-interpolation-filters="sRGB">
          <feFlood flood-opacity="0" result="BackgroundImageFix"></feFlood>
          <feBlend mode="normal" in="SourceGraphic" in2="BackgroundImageFix" result="shape"></feBlend>
          <feGaussianBlur stdDeviation="19.028" result="effect1_foregroundBlur_1_1039"></feGaussianBlur>
        </filter>
        <filter id="filter2_f_1_1039" x="138.819" y="10.4859" width="85.6952" height="92.3619" filterUnits="userSpaceOnUse" color-interpolation-filters="sRGB">
          <feFlood flood-opacity="0" result="BackgroundImageFix"></feFlood>
          <feBlend mode="normal" in="SourceGraphic" in2="BackgroundImageFix" result="shape"></feBlend>
          <feGaussianBlur stdDeviation="19.028" result="effect1_foregroundBlur_1_1039"></feGaussianBlur>
        </filter>
        <filter id="filter3_f_1_1039" x="5.48531" y="10.4854" width="85.6952" height="159.445" filterUnits="userSpaceOnUse" color-interpolation-filters="sRGB">
          <feFlood flood-opacity="0" result="BackgroundImageFix"></feFlood>
          <feBlend mode="normal" in="SourceGraphic" in2="BackgroundImageFix" result="shape"></feBlend>
          <feGaussianBlur stdDeviation="19.028" result="effect1_foregroundBlur_1_1039"></feGaussianBlur>
        </filter>
        <filter id="filter4_f_1_1039" x="5.48531" y="10.4859" width="85.6952" height="92.3619" filterUnits="userSpaceOnUse" color-interpolation-filters="sRGB">
          <feFlood flood-opacity="0" result="BackgroundImageFix"></feFlood>
          <feBlend mode="normal" in="SourceGraphic" in2="BackgroundImageFix" result="shape"></feBlend>
          <feGaussianBlur stdDeviation="19.028" result="effect1_foregroundBlur_1_1039"></feGaussianBlur>
        </filter>
        <filter id="filter5_f_1_1039" x="23.6102" y="-13.8892" width="182.779" height="88.1953" filterUnits="userSpaceOnUse" color-interpolation-filters="sRGB">
          <feFlood flood-opacity="0" result="BackgroundImageFix"></feFlood>
          <feBlend mode="normal" in="SourceGraphic" in2="BackgroundImageFix" result="shape"></feBlend>
          <feGaussianBlur stdDeviation="19.028" result="effect1_foregroundBlur_1_1039"></feGaussianBlur>
        </filter>
        <linearGradient id="paint0_linear_1_1039" x1="40" y1="15" x2="40" y2="165" gradientUnits="userSpaceOnUse">
          <stop stop-color="#FDFDFD"></stop>
          <stop offset="1" stop-color="#F1F1F1"></stop>
        </linearGradient>
        <linearGradient id="paint1_linear_1_1039" x1="115" y1="38.333" x2="115" y2="131.503" gradientUnits="userSpaceOnUse">
          <stop stop-color="#FFB800"></stop>
          <stop offset="1" stop-color="#E3DE67"></stop>
        </linearGradient>
        <clipPath id="clip0_1_1039">
          <rect x="62.2222" y="31.6666" width="105.556" height="133.333" rx="40" fill="white"></rect>
        </clipPath>
      </defs>
    </symbol>
    <symbol fill="none" xmlns="http://www.w3.org/2000/svg" viewBox="0 0 230 230" id="priz">
      <g filter="url(#filter0_d_1_1005)">
        <rect x="40" y="15" width="150" height="150" rx="40" fill="url(#paint0_linear_1_1005)"></rect>
        <mask id="mask0_1_1005" maskUnits="userSpaceOnUse" x="40" y="15" width="150" height="150">
          <rect x="40" y="15" width="150" height="150" rx="40" fill="white"></rect>
        </mask>
        <g mask="url(#mask0_1_1005)">
          <g filter="url(#filter1_f_1_1005)">
            <rect x="176.875" y="131.875" width="83.3333" height="9.58333" rx="4.79167" transform="rotate(-90 176.875 131.875)" fill="white"></rect>
          </g>
          <g filter="url(#filter2_f_1_1005)">
            <rect x="176.875" y="64.7919" width="16.25" height="9.58333" rx="4.79167" transform="rotate(-90 176.875 64.7919)" fill="white"></rect>
          </g>
          <g filter="url(#filter3_f_1_1005)">
            <rect x="43.5415" y="131.875" width="83.3333" height="9.58333" rx="4.79167" transform="rotate(-90 43.5415 131.875)" fill="white"></rect>
          </g>
          <g filter="url(#filter4_f_1_1005)">
            <rect x="43.5415" y="64.7919" width="16.25" height="9.58333" rx="4.79167" transform="rotate(-90 43.5415 64.7919)" fill="white"></rect>
          </g>
          <g filter="url(#filter5_f_1_1005)">
            <rect x="61.6661" y="24.1667" width="106.667" height="12.0833" rx="6.04167" fill="white"></rect>
          </g>
        </g>
        <g filter="url(#filter6_d_1_1005)">
          <path fill-rule="evenodd" clip-rule="evenodd" d="M104.835 54.7165C104.667 53.005 103.19 51.6665 101.391 51.6665C99.4803 51.6665 97.9313 53.1775 97.9313 55.0415V64.1464C97.9313 67.1261 95.5158 69.5416 92.5361 69.5416V69.5416L92.2116 69.5569C90.5028 69.7187 89.1665 71.1452 89.1665 72.8809V99.5952L89.1763 100.169C89.4816 109.125 96.9034 116.292 106.014 116.292H106.27C109.308 116.292 111.771 118.754 111.771 121.792V121.792L111.782 122.328C112.061 128.914 117.454 134.167 124.066 134.167H137.48L137.803 134.151C139.503 133.988 140.833 132.546 140.833 130.792C140.833 128.928 139.332 127.417 137.48 127.417H124.066L123.684 127.404C120.775 127.206 118.477 124.769 118.477 121.792V121.792C118.477 118.754 120.948 116.292 123.985 116.292V116.292L124.565 116.282C133.601 115.979 140.833 108.624 140.833 99.5952V72.8809L140.818 72.5593C140.654 70.866 139.215 69.5416 137.464 69.5416V69.5416C134.484 69.5416 132.068 67.1261 132.068 64.1465V55.0415L132.053 54.7165C131.885 53.005 130.407 51.6665 128.609 51.6665C126.698 51.6665 125.149 53.1775 125.149 55.0415V59.3927C125.149 64.9978 120.605 69.5416 115 69.5416V69.5416C109.395 69.5416 104.851 64.9978 104.851 59.3927V55.0415L104.835 54.7165Z" fill="url(#paint1_linear_1_1005)"></path>
        </g>
      </g>
      <defs>
        <filter id="filter0_d_1_1005" x="0" y="0" width="230" height="230" filterUnits="userSpaceOnUse" color-interpolation-filters="sRGB">
          <feFlood flood-opacity="0" result="BackgroundImageFix"></feFlood>
          <feColorMatrix in="SourceAlpha" type="matrix" values="0 0 0 0 0 0 0 0 0 0 0 0 0 0 0 0 0 0 127 0" result="hardAlpha"></feColorMatrix>
          <feOffset dy="25"></feOffset>
          <feGaussianBlur stdDeviation="20"></feGaussianBlur>
          <feColorMatrix type="matrix" values="0 0 0 0 0 0 0 0 0 0 0 0 0 0 0 0 0 0 0.1 0"></feColorMatrix>
          <feBlend mode="normal" in2="BackgroundImageFix" result="effect1_dropShadow_1_1005"></feBlend>
          <feBlend mode="normal" in="SourceGraphic" in2="effect1_dropShadow_1_1005" result="shape"></feBlend>
        </filter>
        <filter id="filter1_f_1_1005" x="138.819" y="10.4854" width="85.6952" height="159.445" filterUnits="userSpaceOnUse" color-interpolation-filters="sRGB">
          <feFlood flood-opacity="0" result="BackgroundImageFix"></feFlood>
          <feBlend mode="normal" in="SourceGraphic" in2="BackgroundImageFix" result="shape"></feBlend>
          <feGaussianBlur stdDeviation="19.028" result="effect1_foregroundBlur_1_1005"></feGaussianBlur>
        </filter>
        <filter id="filter2_f_1_1005" x="138.819" y="10.4859" width="85.6952" height="92.3619" filterUnits="userSpaceOnUse" color-interpolation-filters="sRGB">
          <feFlood flood-opacity="0" result="BackgroundImageFix"></feFlood>
          <feBlend mode="normal" in="SourceGraphic" in2="BackgroundImageFix" result="shape"></feBlend>
          <feGaussianBlur stdDeviation="19.028" result="effect1_foregroundBlur_1_1005"></feGaussianBlur>
        </filter>
        <filter id="filter3_f_1_1005" x="5.48556" y="10.4854" width="85.6952" height="159.445" filterUnits="userSpaceOnUse" color-interpolation-filters="sRGB">
          <feFlood flood-opacity="0" result="BackgroundImageFix"></feFlood>
          <feBlend mode="normal" in="SourceGraphic" in2="BackgroundImageFix" result="shape"></feBlend>
          <feGaussianBlur stdDeviation="19.028" result="effect1_foregroundBlur_1_1005"></feGaussianBlur>
        </filter>
        <filter id="filter4_f_1_1005" x="5.48556" y="10.4859" width="85.6952" height="92.3619" filterUnits="userSpaceOnUse" color-interpolation-filters="sRGB">
          <feFlood flood-opacity="0" result="BackgroundImageFix"></feFlood>
          <feBlend mode="normal" in="SourceGraphic" in2="BackgroundImageFix" result="shape"></feBlend>
          <feGaussianBlur stdDeviation="19.028" result="effect1_foregroundBlur_1_1005"></feGaussianBlur>
        </filter>
        <filter id="filter5_f_1_1005" x="23.6102" y="-13.8892" width="182.779" height="88.1953" filterUnits="userSpaceOnUse" color-interpolation-filters="sRGB">
          <feFlood flood-opacity="0" result="BackgroundImageFix"></feFlood>
          <feBlend mode="normal" in="SourceGraphic" in2="BackgroundImageFix" result="shape"></feBlend>
          <feGaussianBlur stdDeviation="19.028" result="effect1_foregroundBlur_1_1005"></feGaussianBlur>
        </filter>
        <filter id="filter6_d_1_1005" x="83.1665" y="51.6665" width="63.6667" height="97.5002" filterUnits="userSpaceOnUse" color-interpolation-filters="sRGB">
          <feFlood flood-opacity="0" result="BackgroundImageFix"></feFlood>
          <feColorMatrix in="SourceAlpha" type="matrix" values="0 0 0 0 0 0 0 0 0 0 0 0 0 0 0 0 0 0 127 0" result="hardAlpha"></feColorMatrix>
          <feOffset dy="9"></feOffset>
          <feGaussianBlur stdDeviation="3"></feGaussianBlur>
          <feColorMatrix type="matrix" values="0 0 0 0 0 0 0 0 0 0 0 0 0 0 0 0 0 0 0.0693564 0"></feColorMatrix>
          <feBlend mode="normal" in2="BackgroundImageFix" result="effect1_dropShadow_1_1005"></feBlend>
          <feBlend mode="normal" in="SourceGraphic" in2="effect1_dropShadow_1_1005" result="shape"></feBlend>
        </filter>
        <linearGradient id="paint0_linear_1_1005" x1="40" y1="15" x2="40" y2="165" gradientUnits="userSpaceOnUse">
          <stop stop-color="#FCFCFC"></stop>
          <stop offset="1" stop-color="#F2F2F2"></stop>
        </linearGradient>
        <linearGradient id="paint1_linear_1_1005" x1="89.1665" y1="51.6665" x2="89.1665" y2="134.167" gradientUnits="userSpaceOnUse">
          <stop stop-color="#53B9D9"></stop>
          <stop offset="0.999863" stop-color="#8DD4EA"></stop>
        </linearGradient>
      </defs>
    </symbol>
  </svg>