<svg width="230" height="230" viewBox="0 0 230 230" fill="none" xmlns="http://www.w3.org/2000/svg">
    <g filter="url(#filter0_d_1_1005)">
    <rect x="40" y="15" width="150" height="150" rx="40" fill="url(#paint0_linear_1_1005)"/>
    <mask id="mask0_1_1005" style="mask-type:alpha" maskUnits="userSpaceOnUse" x="40" y="15" width="150" height="150">
    <rect x="40" y="15" width="150" height="150" rx="40" fill="white"/>
    </mask>
    <g mask="url(#mask0_1_1005)">
    <g filter="url(#filter1_f_1_1005)">
    <rect x="176.875" y="131.875" width="83.3333" height="9.58333" rx="4.79167" transform="rotate(-90 176.875 131.875)" fill="white"/>
    </g>
    <g filter="url(#filter2_f_1_1005)">
    <rect x="176.875" y="64.7919" width="16.25" height="9.58333" rx="4.79167" transform="rotate(-90 176.875 64.7919)" fill="white"/>
    </g>
    <g filter="url(#filter3_f_1_1005)">
    <rect x="43.5415" y="131.875" width="83.3333" height="9.58333" rx="4.79167" transform="rotate(-90 43.5415 131.875)" fill="white"/>
    </g>
    <g filter="url(#filter4_f_1_1005)">
    <rect x="43.5415" y="64.7919" width="16.25" height="9.58333" rx="4.79167" transform="rotate(-90 43.5415 64.7919)" fill="white"/>
    </g>
    <g filter="url(#filter5_f_1_1005)">
    <rect x="61.6661" y="24.1667" width="106.667" height="12.0833" rx="6.04167" fill="white"/>
    </g>
    </g>
    <g filter="url(#filter6_d_1_1005)">
    <path fill-rule="evenodd" clip-rule="evenodd" d="M104.835 54.7165C104.667 53.005 103.19 51.6665 101.391 51.6665C99.4803 51.6665 97.9313 53.1775 97.9313 55.0415V64.1464C97.9313 67.1261 95.5158 69.5416 92.5361 69.5416V69.5416L92.2116 69.5569C90.5028 69.7187 89.1665 71.1452 89.1665 72.8809V99.5952L89.1763 100.169C89.4816 109.125 96.9034 116.292 106.014 116.292H106.27C109.308 116.292 111.771 118.754 111.771 121.792V121.792L111.782 122.328C112.061 128.914 117.454 134.167 124.066 134.167H137.48L137.803 134.151C139.503 133.988 140.833 132.546 140.833 130.792C140.833 128.928 139.332 127.417 137.48 127.417H124.066L123.684 127.404C120.775 127.206 118.477 124.769 118.477 121.792V121.792C118.477 118.754 120.948 116.292 123.985 116.292V116.292L124.565 116.282C133.601 115.979 140.833 108.624 140.833 99.5952V72.8809L140.818 72.5593C140.654 70.866 139.215 69.5416 137.464 69.5416V69.5416C134.484 69.5416 132.068 67.1261 132.068 64.1465V55.0415L132.053 54.7165C131.885 53.005 130.407 51.6665 128.609 51.6665C126.698 51.6665 125.149 53.1775 125.149 55.0415V59.3927C125.149 64.9978 120.605 69.5416 115 69.5416V69.5416C109.395 69.5416 104.851 64.9978 104.851 59.3927V55.0415L104.835 54.7165Z" fill="url(#paint1_linear_1_1005)"/>
    </g>
    </g>
    <defs>
    <filter id="filter0_d_1_1005" x="0" y="0" width="230" height="230" filterUnits="userSpaceOnUse" color-interpolation-filters="sRGB">
    <feFlood flood-opacity="0" result="BackgroundImageFix"/>
    <feColorMatrix in="SourceAlpha" type="matrix" values="0 0 0 0 0 0 0 0 0 0 0 0 0 0 0 0 0 0 127 0" result="hardAlpha"/>
    <feOffset dy="25"/>
    <feGaussianBlur stdDeviation="20"/>
    <feColorMatrix type="matrix" values="0 0 0 0 0 0 0 0 0 0 0 0 0 0 0 0 0 0 0.1 0"/>
    <feBlend mode="normal" in2="BackgroundImageFix" result="effect1_dropShadow_1_1005"/>
    <feBlend mode="normal" in="SourceGraphic" in2="effect1_dropShadow_1_1005" result="shape"/>
    </filter>
    <filter id="filter1_f_1_1005" x="138.819" y="10.4854" width="85.6952" height="159.445" filterUnits="userSpaceOnUse" color-interpolation-filters="sRGB">
    <feFlood flood-opacity="0" result="BackgroundImageFix"/>
    <feBlend mode="normal" in="SourceGraphic" in2="BackgroundImageFix" result="shape"/>
    <feGaussianBlur stdDeviation="19.028" result="effect1_foregroundBlur_1_1005"/>
    </filter>
    <filter id="filter2_f_1_1005" x="138.819" y="10.4859" width="85.6952" height="92.3619" filterUnits="userSpaceOnUse" color-interpolation-filters="sRGB">
    <feFlood flood-opacity="0" result="BackgroundImageFix"/>
    <feBlend mode="normal" in="SourceGraphic" in2="BackgroundImageFix" result="shape"/>
    <feGaussianBlur stdDeviation="19.028" result="effect1_foregroundBlur_1_1005"/>
    </filter>
    <filter id="filter3_f_1_1005" x="5.48556" y="10.4854" width="85.6952" height="159.445" filterUnits="userSpaceOnUse" color-interpolation-filters="sRGB">
    <feFlood flood-opacity="0" result="BackgroundImageFix"/>
    <feBlend mode="normal" in="SourceGraphic" in2="BackgroundImageFix" result="shape"/>
    <feGaussianBlur stdDeviation="19.028" result="effect1_foregroundBlur_1_1005"/>
    </filter>
    <filter id="filter4_f_1_1005" x="5.48556" y="10.4859" width="85.6952" height="92.3619" filterUnits="userSpaceOnUse" color-interpolation-filters="sRGB">
    <feFlood flood-opacity="0" result="BackgroundImageFix"/>
    <feBlend mode="normal" in="SourceGraphic" in2="BackgroundImageFix" result="shape"/>
    <feGaussianBlur stdDeviation="19.028" result="effect1_foregroundBlur_1_1005"/>
    </filter>
    <filter id="filter5_f_1_1005" x="23.6102" y="-13.8892" width="182.779" height="88.1953" filterUnits="userSpaceOnUse" color-interpolation-filters="sRGB">
    <feFlood flood-opacity="0" result="BackgroundImageFix"/>
    <feBlend mode="normal" in="SourceGraphic" in2="BackgroundImageFix" result="shape"/>
    <feGaussianBlur stdDeviation="19.028" result="effect1_foregroundBlur_1_1005"/>
    </filter>
    <filter id="filter6_d_1_1005" x="83.1665" y="51.6665" width="63.6667" height="97.5002" filterUnits="userSpaceOnUse" color-interpolation-filters="sRGB">
    <feFlood flood-opacity="0" result="BackgroundImageFix"/>
    <feColorMatrix in="SourceAlpha" type="matrix" values="0 0 0 0 0 0 0 0 0 0 0 0 0 0 0 0 0 0 127 0" result="hardAlpha"/>
    <feOffset dy="9"/>
    <feGaussianBlur stdDeviation="3"/>
    <feColorMatrix type="matrix" values="0 0 0 0 0 0 0 0 0 0 0 0 0 0 0 0 0 0 0.0693564 0"/>
    <feBlend mode="normal" in2="BackgroundImageFix" result="effect1_dropShadow_1_1005"/>
    <feBlend mode="normal" in="SourceGraphic" in2="effect1_dropShadow_1_1005" result="shape"/>
    </filter>
    <linearGradient id="paint0_linear_1_1005" x1="40" y1="15" x2="40" y2="165" gradientUnits="userSpaceOnUse">
    <stop stop-color="#FCFCFC"/>
    <stop offset="1" stop-color="#F2F2F2"/>
    </linearGradient>
    <linearGradient id="paint1_linear_1_1005" x1="89.1665" y1="51.6665" x2="89.1665" y2="134.167" gradientUnits="userSpaceOnUse">
    <stop stop-color="#53B9D9"/>
    <stop offset="0.999863" stop-color="#8DD4EA"/>
    </linearGradient>
    </defs>
    </svg>
    